<mxfile host="app.diagrams.net" modified="2023-10-20T20:59:29.829Z" agent="Mozilla/5.0 (Windows NT 10.0; Win64; x64) AppleWebKit/537.36 (KHTML, like Gecko) Chrome/116.0.0.0 Safari/537.36 OPR/102.0.0.0" etag="mzh1165iEVC0sKx3ASXw" version="22.0.6" type="device">
  <diagram name="PÃ¡gina-1" id="POQHsENz2hvb2r6ufpSw">
    <mxGraphModel dx="3943" dy="2522" grid="1" gridSize="10" guides="1" tooltips="1" connect="1" arrows="1" fold="1" page="1" pageScale="1" pageWidth="827" pageHeight="1169" math="0" shadow="0">
      <root>
        <mxCell id="0" />
        <mxCell id="1" parent="0" />
        <mxCell id="y3Y6H-X3qQzjZ2dYzm8i-1" value="CLIENTE" style="rounded=1;whiteSpace=wrap;html=1;arcSize=27;" parent="1" vertex="1">
          <mxGeometry x="170" y="125" width="120" height="40" as="geometry" />
        </mxCell>
        <mxCell id="y3Y6H-X3qQzjZ2dYzm8i-2" value="" style="endArrow=none;html=1;rounded=0;entryX=1;entryY=0.25;entryDx=0;entryDy=0;exitX=0.245;exitY=1.044;exitDx=0;exitDy=0;exitPerimeter=0;" parent="1" source="BF22gdORD3tfmSY-qZLE-30" target="CzmuyPAignQkNYChFBfo-2" edge="1">
          <mxGeometry width="50" height="50" relative="1" as="geometry">
            <mxPoint x="260" y="250" as="sourcePoint" />
            <mxPoint x="410" y="380" as="targetPoint" />
          </mxGeometry>
        </mxCell>
        <mxCell id="y3Y6H-X3qQzjZ2dYzm8i-4" value="" style="endArrow=none;html=1;rounded=0;exitX=0;exitY=0;exitDx=0;exitDy=0;entryX=1;entryY=0.5;entryDx=0;entryDy=0;" parent="1" source="CzmuyPAignQkNYChFBfo-2" target="y3Y6H-X3qQzjZ2dYzm8i-8" edge="1">
          <mxGeometry width="50" height="50" relative="1" as="geometry">
            <mxPoint x="210" y="280" as="sourcePoint" />
            <mxPoint x="150" y="260" as="targetPoint" />
          </mxGeometry>
        </mxCell>
        <mxCell id="y3Y6H-X3qQzjZ2dYzm8i-5" value="" style="endArrow=none;html=1;rounded=0;exitX=1;exitY=0;exitDx=0;exitDy=0;entryX=0.5;entryY=1;entryDx=0;entryDy=0;" parent="1" source="CzmuyPAignQkNYChFBfo-2" target="y3Y6H-X3qQzjZ2dYzm8i-9" edge="1">
          <mxGeometry width="50" height="50" relative="1" as="geometry">
            <mxPoint x="220" y="290" as="sourcePoint" />
            <mxPoint x="100" y="290" as="targetPoint" />
          </mxGeometry>
        </mxCell>
        <mxCell id="y3Y6H-X3qQzjZ2dYzm8i-8" value="NOME" style="ellipse;whiteSpace=wrap;html=1;" parent="1" vertex="1">
          <mxGeometry x="-150" y="-170" width="80" height="30" as="geometry" />
        </mxCell>
        <mxCell id="y3Y6H-X3qQzjZ2dYzm8i-9" value="&lt;u&gt;CPF&lt;/u&gt;" style="ellipse;whiteSpace=wrap;html=1;" parent="1" vertex="1">
          <mxGeometry x="40" y="-200" width="80" height="30" as="geometry" />
        </mxCell>
        <mxCell id="y3Y6H-X3qQzjZ2dYzm8i-10" value="" style="endArrow=none;html=1;rounded=0;exitX=0.454;exitY=0.018;exitDx=0;exitDy=0;entryX=0.5;entryY=1;entryDx=0;entryDy=0;exitPerimeter=0;" parent="1" source="CzmuyPAignQkNYChFBfo-2" target="y3Y6H-X3qQzjZ2dYzm8i-11" edge="1">
          <mxGeometry width="50" height="50" relative="1" as="geometry">
            <mxPoint x="150" y="330" as="sourcePoint" />
            <mxPoint x="20" y="320" as="targetPoint" />
          </mxGeometry>
        </mxCell>
        <mxCell id="y3Y6H-X3qQzjZ2dYzm8i-11" value="ENDERECO" style="ellipse;whiteSpace=wrap;html=1;" parent="1" vertex="1">
          <mxGeometry x="-55" y="-210" width="80" height="30" as="geometry" />
        </mxCell>
        <mxCell id="y3Y6H-X3qQzjZ2dYzm8i-14" value="RUA" style="ellipse;whiteSpace=wrap;html=1;" parent="1" vertex="1">
          <mxGeometry x="25" y="-270" width="80" height="30" as="geometry" />
        </mxCell>
        <mxCell id="y3Y6H-X3qQzjZ2dYzm8i-15" value="" style="endArrow=none;html=1;rounded=0;exitX=0.5;exitY=1;exitDx=0;exitDy=0;entryX=0.687;entryY=-0.053;entryDx=0;entryDy=0;entryPerimeter=0;" parent="1" source="y3Y6H-X3qQzjZ2dYzm8i-14" target="y3Y6H-X3qQzjZ2dYzm8i-11" edge="1">
          <mxGeometry width="50" height="50" relative="1" as="geometry">
            <mxPoint x="180" y="330" as="sourcePoint" />
            <mxPoint x="120" y="320" as="targetPoint" />
          </mxGeometry>
        </mxCell>
        <mxCell id="y3Y6H-X3qQzjZ2dYzm8i-16" value="NUMERO" style="ellipse;whiteSpace=wrap;html=1;" parent="1" vertex="1">
          <mxGeometry x="-70" y="-280" width="80" height="30" as="geometry" />
        </mxCell>
        <mxCell id="y3Y6H-X3qQzjZ2dYzm8i-17" value="" style="endArrow=none;html=1;rounded=0;exitX=0.5;exitY=1;exitDx=0;exitDy=0;entryX=0.399;entryY=-0.016;entryDx=0;entryDy=0;entryPerimeter=0;" parent="1" source="y3Y6H-X3qQzjZ2dYzm8i-16" target="y3Y6H-X3qQzjZ2dYzm8i-11" edge="1">
          <mxGeometry width="50" height="50" relative="1" as="geometry">
            <mxPoint x="70" y="405" as="sourcePoint" />
            <mxPoint x="70" y="300.0000000000001" as="targetPoint" />
            <Array as="points" />
          </mxGeometry>
        </mxCell>
        <mxCell id="y3Y6H-X3qQzjZ2dYzm8i-18" value="" style="endArrow=none;html=1;rounded=0;entryX=0.216;entryY=0.047;entryDx=0;entryDy=0;entryPerimeter=0;exitX=0.5;exitY=0;exitDx=0;exitDy=0;" parent="1" source="y3Y6H-X3qQzjZ2dYzm8i-19" target="y3Y6H-X3qQzjZ2dYzm8i-11" edge="1">
          <mxGeometry width="50" height="50" relative="1" as="geometry">
            <mxPoint x="-20" y="340" as="sourcePoint" />
            <mxPoint x="70" y="310" as="targetPoint" />
            <Array as="points" />
          </mxGeometry>
        </mxCell>
        <mxCell id="y3Y6H-X3qQzjZ2dYzm8i-19" value="CEP" style="ellipse;whiteSpace=wrap;html=1;" parent="1" vertex="1">
          <mxGeometry x="-170" y="-280" width="80" height="30" as="geometry" />
        </mxCell>
        <mxCell id="y3Y6H-X3qQzjZ2dYzm8i-20" value="" style="endArrow=none;html=1;rounded=0;entryX=0.5;entryY=0;entryDx=0;entryDy=0;exitX=0.5;exitY=1;exitDx=0;exitDy=0;" parent="1" source="y3Y6H-X3qQzjZ2dYzm8i-21" target="y3Y6H-X3qQzjZ2dYzm8i-8" edge="1">
          <mxGeometry width="50" height="50" relative="1" as="geometry">
            <mxPoint x="110" y="180" as="sourcePoint" />
            <mxPoint x="180" y="230" as="targetPoint" />
          </mxGeometry>
        </mxCell>
        <mxCell id="y3Y6H-X3qQzjZ2dYzm8i-21" value="P NOME" style="ellipse;whiteSpace=wrap;html=1;" parent="1" vertex="1">
          <mxGeometry x="-345" y="-270" width="80" height="30" as="geometry" />
        </mxCell>
        <mxCell id="y3Y6H-X3qQzjZ2dYzm8i-22" value="" style="endArrow=none;html=1;rounded=0;exitX=0.5;exitY=0;exitDx=0;exitDy=0;entryX=0.5;entryY=1;entryDx=0;entryDy=0;" parent="1" source="y3Y6H-X3qQzjZ2dYzm8i-8" target="y3Y6H-X3qQzjZ2dYzm8i-23" edge="1">
          <mxGeometry width="50" height="50" relative="1" as="geometry">
            <mxPoint x="140" y="190" as="sourcePoint" />
            <mxPoint x="200" y="170" as="targetPoint" />
          </mxGeometry>
        </mxCell>
        <mxCell id="y3Y6H-X3qQzjZ2dYzm8i-23" value="UNOME" style="ellipse;whiteSpace=wrap;html=1;" parent="1" vertex="1">
          <mxGeometry x="-300" y="-300" width="80" height="30" as="geometry" />
        </mxCell>
        <mxCell id="y3Y6H-X3qQzjZ2dYzm8i-27" value="&lt;font style=&quot;font-size: 9px;&quot;&gt;TEM_CONTA_POUPANCA&lt;/font&gt;" style="shape=rhombus;double=1;perimeter=rhombusPerimeter;whiteSpace=wrap;html=1;align=center;rounded=0;strokeColor=default;verticalAlign=middle;fontFamily=Helvetica;fontSize=12;fontColor=default;fillColor=default;" parent="1" vertex="1">
          <mxGeometry x="200" y="495" width="150" height="90" as="geometry" />
        </mxCell>
        <mxCell id="y3Y6H-X3qQzjZ2dYzm8i-28" value="&lt;font size=&quot;1&quot;&gt;PERTENCE&lt;/font&gt;" style="shape=rhombus;double=1;perimeter=rhombusPerimeter;whiteSpace=wrap;html=1;align=center;rounded=0;strokeColor=default;verticalAlign=middle;fontFamily=Helvetica;fontSize=12;fontColor=default;fillColor=default;" parent="1" vertex="1">
          <mxGeometry x="770" y="485" width="150" height="90" as="geometry" />
        </mxCell>
        <mxCell id="y3Y6H-X3qQzjZ2dYzm8i-32" value="" style="endArrow=none;html=1;rounded=0;fontFamily=Helvetica;fontSize=12;fontColor=default;entryX=0.56;entryY=0.973;entryDx=0;entryDy=0;entryPerimeter=0;exitX=0.599;exitY=-0.103;exitDx=0;exitDy=0;exitPerimeter=0;" parent="1" source="BF22gdORD3tfmSY-qZLE-32" target="y3Y6H-X3qQzjZ2dYzm8i-27" edge="1">
          <mxGeometry width="50" height="50" relative="1" as="geometry">
            <mxPoint x="284" y="679.48" as="sourcePoint" />
            <mxPoint x="410" y="470" as="targetPoint" />
          </mxGeometry>
        </mxCell>
        <mxCell id="BF22gdORD3tfmSY-qZLE-4" value="1" style="edgeLabel;html=1;align=center;verticalAlign=middle;resizable=0;points=[];" parent="y3Y6H-X3qQzjZ2dYzm8i-32" vertex="1" connectable="0">
          <mxGeometry x="0.6576" y="-2" relative="1" as="geometry">
            <mxPoint x="9" y="-4" as="offset" />
          </mxGeometry>
        </mxCell>
        <mxCell id="y3Y6H-X3qQzjZ2dYzm8i-33" value="" style="endArrow=none;html=1;rounded=0;fontFamily=Helvetica;fontSize=12;fontColor=default;entryX=0.456;entryY=0.973;entryDx=0;entryDy=0;entryPerimeter=0;exitX=0.424;exitY=-0.015;exitDx=0;exitDy=0;exitPerimeter=0;" parent="1" source="BF22gdORD3tfmSY-qZLE-32" target="y3Y6H-X3qQzjZ2dYzm8i-27" edge="1">
          <mxGeometry width="50" height="50" relative="1" as="geometry">
            <mxPoint x="269.1999999999998" y="680.2" as="sourcePoint" />
            <mxPoint x="59" y="568" as="targetPoint" />
          </mxGeometry>
        </mxCell>
        <mxCell id="y3Y6H-X3qQzjZ2dYzm8i-35" value="" style="endArrow=none;html=1;rounded=0;fontFamily=Helvetica;fontSize=12;fontColor=default;exitX=1;exitY=0.5;exitDx=0;exitDy=0;entryX=0.443;entryY=0.982;entryDx=0;entryDy=0;entryPerimeter=0;" parent="1" source="BF22gdORD3tfmSY-qZLE-32" target="y3Y6H-X3qQzjZ2dYzm8i-28" edge="1">
          <mxGeometry width="50" height="50" relative="1" as="geometry">
            <mxPoint x="325" y="700" as="sourcePoint" />
            <mxPoint x="850" y="660" as="targetPoint" />
            <Array as="points">
              <mxPoint x="840" y="700" />
            </Array>
          </mxGeometry>
        </mxCell>
        <mxCell id="BF22gdORD3tfmSY-qZLE-7" value="N" style="edgeLabel;html=1;align=center;verticalAlign=middle;resizable=0;points=[];" parent="y3Y6H-X3qQzjZ2dYzm8i-35" vertex="1" connectable="0">
          <mxGeometry x="0.961" y="1" relative="1" as="geometry">
            <mxPoint x="34" y="-6" as="offset" />
          </mxGeometry>
        </mxCell>
        <mxCell id="y3Y6H-X3qQzjZ2dYzm8i-36" value="" style="endArrow=none;html=1;rounded=0;fontFamily=Helvetica;fontSize=12;fontColor=default;exitX=1;exitY=0.75;exitDx=0;exitDy=0;entryX=0.571;entryY=0.965;entryDx=0;entryDy=0;entryPerimeter=0;" parent="1" source="BF22gdORD3tfmSY-qZLE-32" target="y3Y6H-X3qQzjZ2dYzm8i-28" edge="1">
          <mxGeometry width="50" height="50" relative="1" as="geometry">
            <mxPoint x="325" y="710" as="sourcePoint" />
            <mxPoint x="855" y="570" as="targetPoint" />
            <Array as="points">
              <mxPoint x="860" y="710" />
            </Array>
          </mxGeometry>
        </mxCell>
        <mxCell id="y3Y6H-X3qQzjZ2dYzm8i-37" value="AGENCIA" style="rounded=1;whiteSpace=wrap;html=1;arcSize=27;" parent="1" vertex="1">
          <mxGeometry x="785" y="360" width="120" height="40" as="geometry" />
        </mxCell>
        <mxCell id="y3Y6H-X3qQzjZ2dYzm8i-38" value="" style="endArrow=none;html=1;rounded=0;fontFamily=Helvetica;fontSize=12;fontColor=default;entryX=0.5;entryY=1;entryDx=0;entryDy=0;exitX=0.5;exitY=0;exitDx=0;exitDy=0;" parent="1" source="y3Y6H-X3qQzjZ2dYzm8i-28" target="y3Y6H-X3qQzjZ2dYzm8i-37" edge="1">
          <mxGeometry width="50" height="50" relative="1" as="geometry">
            <mxPoint x="660" y="430" as="sourcePoint" />
            <mxPoint x="710" y="380" as="targetPoint" />
          </mxGeometry>
        </mxCell>
        <mxCell id="BF22gdORD3tfmSY-qZLE-8" value="1" style="edgeLabel;html=1;align=center;verticalAlign=middle;resizable=0;points=[];" parent="y3Y6H-X3qQzjZ2dYzm8i-38" vertex="1" connectable="0">
          <mxGeometry x="-0.6448" y="1" relative="1" as="geometry">
            <mxPoint x="26" y="15" as="offset" />
          </mxGeometry>
        </mxCell>
        <mxCell id="y3Y6H-X3qQzjZ2dYzm8i-39" value="&lt;u&gt;NUMERO_AG&lt;/u&gt;" style="ellipse;whiteSpace=wrap;html=1;" parent="1" vertex="1">
          <mxGeometry x="930" y="410" width="80" height="30" as="geometry" />
        </mxCell>
        <mxCell id="y3Y6H-X3qQzjZ2dYzm8i-40" value="" style="endArrow=none;html=1;rounded=0;fontFamily=Helvetica;fontSize=12;fontColor=default;entryX=0;entryY=0.5;entryDx=0;entryDy=0;exitX=1;exitY=1;exitDx=0;exitDy=0;" parent="1" source="y3Y6H-X3qQzjZ2dYzm8i-37" target="y3Y6H-X3qQzjZ2dYzm8i-39" edge="1">
          <mxGeometry width="50" height="50" relative="1" as="geometry">
            <mxPoint x="660" y="430" as="sourcePoint" />
            <mxPoint x="710" y="380" as="targetPoint" />
          </mxGeometry>
        </mxCell>
        <mxCell id="y3Y6H-X3qQzjZ2dYzm8i-41" value="ENDERECO" style="ellipse;whiteSpace=wrap;html=1;" parent="1" vertex="1">
          <mxGeometry x="940" y="350" width="80" height="30" as="geometry" />
        </mxCell>
        <mxCell id="y3Y6H-X3qQzjZ2dYzm8i-42" value="" style="endArrow=none;html=1;rounded=0;fontFamily=Helvetica;fontSize=12;fontColor=default;entryX=0;entryY=0.5;entryDx=0;entryDy=0;exitX=1;exitY=0.5;exitDx=0;exitDy=0;" parent="1" source="y3Y6H-X3qQzjZ2dYzm8i-37" target="y3Y6H-X3qQzjZ2dYzm8i-41" edge="1">
          <mxGeometry width="50" height="50" relative="1" as="geometry">
            <mxPoint x="660" y="430" as="sourcePoint" />
            <mxPoint x="710" y="380" as="targetPoint" />
          </mxGeometry>
        </mxCell>
        <mxCell id="y3Y6H-X3qQzjZ2dYzm8i-43" value="RUA" style="ellipse;whiteSpace=wrap;html=1;" parent="1" vertex="1">
          <mxGeometry x="1060" y="320" width="80" height="30" as="geometry" />
        </mxCell>
        <mxCell id="y3Y6H-X3qQzjZ2dYzm8i-44" value="NUMERO" style="ellipse;whiteSpace=wrap;html=1;" parent="1" vertex="1">
          <mxGeometry x="1040" y="260" width="80" height="30" as="geometry" />
        </mxCell>
        <mxCell id="y3Y6H-X3qQzjZ2dYzm8i-45" value="CEP" style="ellipse;whiteSpace=wrap;html=1;" parent="1" vertex="1">
          <mxGeometry x="1050" y="365" width="80" height="30" as="geometry" />
        </mxCell>
        <mxCell id="y3Y6H-X3qQzjZ2dYzm8i-46" value="" style="endArrow=none;html=1;rounded=0;fontFamily=Helvetica;fontSize=12;fontColor=default;entryX=0.5;entryY=1;entryDx=0;entryDy=0;exitX=1;exitY=0.5;exitDx=0;exitDy=0;" parent="1" source="y3Y6H-X3qQzjZ2dYzm8i-41" target="y3Y6H-X3qQzjZ2dYzm8i-44" edge="1">
          <mxGeometry width="50" height="50" relative="1" as="geometry">
            <mxPoint x="1040" y="430" as="sourcePoint" />
            <mxPoint x="1090" y="380" as="targetPoint" />
          </mxGeometry>
        </mxCell>
        <mxCell id="y3Y6H-X3qQzjZ2dYzm8i-47" value="" style="endArrow=none;html=1;rounded=0;fontFamily=Helvetica;fontSize=12;fontColor=default;entryX=1;entryY=0.5;entryDx=0;entryDy=0;exitX=0;exitY=0.5;exitDx=0;exitDy=0;" parent="1" source="y3Y6H-X3qQzjZ2dYzm8i-43" target="y3Y6H-X3qQzjZ2dYzm8i-41" edge="1">
          <mxGeometry width="50" height="50" relative="1" as="geometry">
            <mxPoint x="1040" y="430" as="sourcePoint" />
            <mxPoint x="1090" y="380" as="targetPoint" />
          </mxGeometry>
        </mxCell>
        <mxCell id="y3Y6H-X3qQzjZ2dYzm8i-48" value="" style="endArrow=none;html=1;rounded=0;fontFamily=Helvetica;fontSize=12;fontColor=default;entryX=1;entryY=0.5;entryDx=0;entryDy=0;exitX=0;exitY=0.5;exitDx=0;exitDy=0;" parent="1" source="y3Y6H-X3qQzjZ2dYzm8i-45" target="y3Y6H-X3qQzjZ2dYzm8i-41" edge="1">
          <mxGeometry width="50" height="50" relative="1" as="geometry">
            <mxPoint x="1070" y="275" as="sourcePoint" />
            <mxPoint x="1040" y="285" as="targetPoint" />
          </mxGeometry>
        </mxCell>
        <mxCell id="y3Y6H-X3qQzjZ2dYzm8i-49" value="" style="endArrow=none;html=1;rounded=0;fontFamily=Helvetica;fontSize=12;fontColor=default;entryX=1;entryY=0.25;entryDx=0;entryDy=0;exitX=0.066;exitY=0.765;exitDx=0;exitDy=0;exitPerimeter=0;" parent="1" source="BF22gdORD3tfmSY-qZLE-29" target="y3Y6H-X3qQzjZ2dYzm8i-37" edge="1">
          <mxGeometry width="50" height="50" relative="1" as="geometry">
            <mxPoint x="945" y="335" as="sourcePoint" />
            <mxPoint x="1090" y="380" as="targetPoint" />
          </mxGeometry>
        </mxCell>
        <mxCell id="y3Y6H-X3qQzjZ2dYzm8i-52" value="&lt;font size=&quot;1&quot;&gt;PERTENCE&lt;/font&gt;" style="shape=rhombus;double=1;perimeter=rhombusPerimeter;whiteSpace=wrap;html=1;align=center;rounded=0;strokeColor=default;verticalAlign=middle;fontFamily=Helvetica;fontSize=12;fontColor=default;fillColor=default;" parent="1" vertex="1">
          <mxGeometry x="770" y="200" width="150" height="90" as="geometry" />
        </mxCell>
        <mxCell id="y3Y6H-X3qQzjZ2dYzm8i-53" value="" style="endArrow=none;html=1;rounded=0;fontFamily=Helvetica;fontSize=12;fontColor=default;entryX=0.5;entryY=0;entryDx=0;entryDy=0;" parent="1" target="y3Y6H-X3qQzjZ2dYzm8i-37" edge="1">
          <mxGeometry width="50" height="50" relative="1" as="geometry">
            <mxPoint x="845" y="290" as="sourcePoint" />
            <mxPoint x="690" y="380" as="targetPoint" />
          </mxGeometry>
        </mxCell>
        <mxCell id="BF22gdORD3tfmSY-qZLE-9" value="1" style="edgeLabel;html=1;align=center;verticalAlign=middle;resizable=0;points=[];" parent="y3Y6H-X3qQzjZ2dYzm8i-53" vertex="1" connectable="0">
          <mxGeometry x="-0.6313" y="-1" relative="1" as="geometry">
            <mxPoint x="26" y="-8" as="offset" />
          </mxGeometry>
        </mxCell>
        <mxCell id="y3Y6H-X3qQzjZ2dYzm8i-56" value="" style="endArrow=none;html=1;rounded=0;fontFamily=Helvetica;fontSize=12;fontColor=default;entryX=0.429;entryY=1;entryDx=0;entryDy=0;entryPerimeter=0;exitX=0.453;exitY=0.023;exitDx=0;exitDy=0;exitPerimeter=0;" parent="1" source="y3Y6H-X3qQzjZ2dYzm8i-52" edge="1">
          <mxGeometry width="50" height="50" relative="1" as="geometry">
            <mxPoint x="640" y="230" as="sourcePoint" />
            <mxPoint x="837.9000000000005" y="160" as="targetPoint" />
          </mxGeometry>
        </mxCell>
        <mxCell id="y3Y6H-X3qQzjZ2dYzm8i-57" value="" style="endArrow=none;html=1;rounded=0;fontFamily=Helvetica;fontSize=12;fontColor=default;entryX=0.562;entryY=1.079;entryDx=0;entryDy=0;exitX=0.546;exitY=0.023;exitDx=0;exitDy=0;exitPerimeter=0;entryPerimeter=0;" parent="1" source="y3Y6H-X3qQzjZ2dYzm8i-52" edge="1">
          <mxGeometry width="50" height="50" relative="1" as="geometry">
            <mxPoint x="640" y="230" as="sourcePoint" />
            <mxPoint x="851.1999999999998" y="163.16000000000008" as="targetPoint" />
          </mxGeometry>
        </mxCell>
        <mxCell id="BF22gdORD3tfmSY-qZLE-10" value="N" style="edgeLabel;html=1;align=center;verticalAlign=middle;resizable=0;points=[];" parent="y3Y6H-X3qQzjZ2dYzm8i-57" vertex="1" connectable="0">
          <mxGeometry x="-0.375" relative="1" as="geometry">
            <mxPoint x="18" y="10" as="offset" />
          </mxGeometry>
        </mxCell>
        <mxCell id="y3Y6H-X3qQzjZ2dYzm8i-58" value="" style="endArrow=none;html=1;rounded=0;fontFamily=Helvetica;fontSize=12;fontColor=default;entryX=0.5;entryY=0;entryDx=0;entryDy=0;exitX=0.5;exitY=1;exitDx=0;exitDy=0;" parent="1" source="y3Y6H-X3qQzjZ2dYzm8i-69" target="BF22gdORD3tfmSY-qZLE-123" edge="1">
          <mxGeometry width="50" height="50" relative="1" as="geometry">
            <mxPoint x="880" y="90" as="sourcePoint" />
            <mxPoint x="845" y="120" as="targetPoint" />
          </mxGeometry>
        </mxCell>
        <mxCell id="y3Y6H-X3qQzjZ2dYzm8i-59" value="&lt;font style=&quot;font-size: 10px;&quot;&gt;DATA ABERTURA&lt;/font&gt;" style="ellipse;whiteSpace=wrap;html=1;" parent="1" vertex="1">
          <mxGeometry x="190" y="800" width="80" height="30" as="geometry" />
        </mxCell>
        <mxCell id="y3Y6H-X3qQzjZ2dYzm8i-60" value="SALDO" style="ellipse;whiteSpace=wrap;html=1;" parent="1" vertex="1">
          <mxGeometry x="280" y="800" width="80" height="30" as="geometry" />
        </mxCell>
        <mxCell id="y3Y6H-X3qQzjZ2dYzm8i-61" value="&lt;u&gt;NUM CONTA_P&lt;/u&gt;" style="ellipse;whiteSpace=wrap;html=1;" parent="1" vertex="1">
          <mxGeometry x="110" y="800" width="80" height="30" as="geometry" />
        </mxCell>
        <mxCell id="y3Y6H-X3qQzjZ2dYzm8i-62" value="&lt;font style=&quot;font-size: 9px;&quot;&gt;RESTRICAO SAQUE&lt;/font&gt;" style="ellipse;whiteSpace=wrap;html=1;" parent="1" vertex="1">
          <mxGeometry x="370" y="800" width="80" height="30" as="geometry" />
        </mxCell>
        <mxCell id="y3Y6H-X3qQzjZ2dYzm8i-63" value="" style="endArrow=none;html=1;rounded=0;fontFamily=Helvetica;fontSize=12;fontColor=default;exitX=0.5;exitY=0;exitDx=0;exitDy=0;entryX=0.5;entryY=1;entryDx=0;entryDy=0;" parent="1" source="y3Y6H-X3qQzjZ2dYzm8i-61" target="BF22gdORD3tfmSY-qZLE-32" edge="1">
          <mxGeometry width="50" height="50" relative="1" as="geometry">
            <mxPoint x="640" y="600" as="sourcePoint" />
            <mxPoint x="275" y="720" as="targetPoint" />
          </mxGeometry>
        </mxCell>
        <mxCell id="y3Y6H-X3qQzjZ2dYzm8i-64" value="" style="endArrow=none;html=1;rounded=0;fontFamily=Helvetica;fontSize=12;fontColor=default;exitX=0.5;exitY=0;exitDx=0;exitDy=0;entryX=0.5;entryY=1;entryDx=0;entryDy=0;" parent="1" source="y3Y6H-X3qQzjZ2dYzm8i-59" target="BF22gdORD3tfmSY-qZLE-32" edge="1">
          <mxGeometry width="50" height="50" relative="1" as="geometry">
            <mxPoint x="470" y="750" as="sourcePoint" />
            <mxPoint x="275" y="720" as="targetPoint" />
          </mxGeometry>
        </mxCell>
        <mxCell id="y3Y6H-X3qQzjZ2dYzm8i-65" value="" style="endArrow=none;html=1;rounded=0;fontFamily=Helvetica;fontSize=12;fontColor=default;exitX=0.5;exitY=0;exitDx=0;exitDy=0;entryX=0.5;entryY=1;entryDx=0;entryDy=0;" parent="1" source="y3Y6H-X3qQzjZ2dYzm8i-60" target="BF22gdORD3tfmSY-qZLE-32" edge="1">
          <mxGeometry width="50" height="50" relative="1" as="geometry">
            <mxPoint x="560" y="750" as="sourcePoint" />
            <mxPoint x="275" y="720" as="targetPoint" />
          </mxGeometry>
        </mxCell>
        <mxCell id="y3Y6H-X3qQzjZ2dYzm8i-66" value="" style="endArrow=none;html=1;rounded=0;fontFamily=Helvetica;fontSize=12;fontColor=default;exitX=0.5;exitY=0;exitDx=0;exitDy=0;entryX=0.5;entryY=1;entryDx=0;entryDy=0;" parent="1" source="y3Y6H-X3qQzjZ2dYzm8i-62" target="BF22gdORD3tfmSY-qZLE-32" edge="1">
          <mxGeometry width="50" height="50" relative="1" as="geometry">
            <mxPoint x="655" y="750" as="sourcePoint" />
            <mxPoint x="275" y="720" as="targetPoint" />
          </mxGeometry>
        </mxCell>
        <mxCell id="y3Y6H-X3qQzjZ2dYzm8i-67" value="&lt;font style=&quot;font-size: 10px;&quot;&gt;DATA ABERTURA&lt;/font&gt;" style="ellipse;whiteSpace=wrap;html=1;" parent="1" vertex="1">
          <mxGeometry x="880" y="50" width="80" height="30" as="geometry" />
        </mxCell>
        <mxCell id="y3Y6H-X3qQzjZ2dYzm8i-69" value="&lt;u&gt;NUM CONTA_C&lt;/u&gt;" style="ellipse;whiteSpace=wrap;html=1;" parent="1" vertex="1">
          <mxGeometry x="790" y="40" width="90" height="30" as="geometry" />
        </mxCell>
        <mxCell id="y3Y6H-X3qQzjZ2dYzm8i-70" value="" style="endArrow=none;html=1;rounded=0;fontFamily=Helvetica;fontSize=12;fontColor=default;entryX=0.5;entryY=0;entryDx=0;entryDy=0;exitX=0.5;exitY=1;exitDx=0;exitDy=0;" parent="1" source="y3Y6H-X3qQzjZ2dYzm8i-67" target="BF22gdORD3tfmSY-qZLE-123" edge="1">
          <mxGeometry width="50" height="50" relative="1" as="geometry">
            <mxPoint x="855" y="80" as="sourcePoint" />
            <mxPoint x="845" y="120" as="targetPoint" />
            <Array as="points" />
          </mxGeometry>
        </mxCell>
        <mxCell id="y3Y6H-X3qQzjZ2dYzm8i-72" value="SALDO" style="ellipse;whiteSpace=wrap;html=1;" parent="1" vertex="1">
          <mxGeometry x="705" y="60" width="80" height="30" as="geometry" />
        </mxCell>
        <mxCell id="y3Y6H-X3qQzjZ2dYzm8i-73" value="" style="endArrow=none;html=1;rounded=0;fontFamily=Helvetica;fontSize=12;fontColor=default;exitX=0.5;exitY=1;exitDx=0;exitDy=0;entryX=0.5;entryY=0;entryDx=0;entryDy=0;" parent="1" source="y3Y6H-X3qQzjZ2dYzm8i-72" target="BF22gdORD3tfmSY-qZLE-123" edge="1">
          <mxGeometry width="50" height="50" relative="1" as="geometry">
            <mxPoint x="855" y="80" as="sourcePoint" />
            <mxPoint x="845" y="120" as="targetPoint" />
          </mxGeometry>
        </mxCell>
        <mxCell id="y3Y6H-X3qQzjZ2dYzm8i-74" value="&lt;font size=&quot;1&quot;&gt;TEM CONTA CORRENTE&lt;/font&gt;" style="shape=rhombus;double=1;perimeter=rhombusPerimeter;whiteSpace=wrap;html=1;align=center;rounded=0;strokeColor=default;verticalAlign=middle;fontFamily=Helvetica;fontSize=12;fontColor=default;fillColor=default;" parent="1" vertex="1">
          <mxGeometry x="500" y="95" width="150" height="90" as="geometry" />
        </mxCell>
        <mxCell id="y3Y6H-X3qQzjZ2dYzm8i-75" value="" style="endArrow=none;html=1;rounded=0;fontFamily=Helvetica;fontSize=12;fontColor=default;exitX=0.959;exitY=0.58;exitDx=0;exitDy=0;exitPerimeter=0;" parent="1" source="y3Y6H-X3qQzjZ2dYzm8i-74" edge="1">
          <mxGeometry width="50" height="50" relative="1" as="geometry">
            <mxPoint x="640" y="240" as="sourcePoint" />
            <mxPoint x="790" y="147" as="targetPoint" />
          </mxGeometry>
        </mxCell>
        <mxCell id="y3Y6H-X3qQzjZ2dYzm8i-77" value="" style="endArrow=none;html=1;rounded=0;fontFamily=Helvetica;fontSize=12;fontColor=default;exitX=0.949;exitY=0.432;exitDx=0;exitDy=0;exitPerimeter=0;entryX=-0.053;entryY=0.403;entryDx=0;entryDy=0;entryPerimeter=0;" parent="1" source="y3Y6H-X3qQzjZ2dYzm8i-74" edge="1">
          <mxGeometry width="50" height="50" relative="1" as="geometry">
            <mxPoint x="654" y="157" as="sourcePoint" />
            <mxPoint x="789.7000000000007" y="136.1199999999999" as="targetPoint" />
          </mxGeometry>
        </mxCell>
        <mxCell id="BF22gdORD3tfmSY-qZLE-18" value="1" style="edgeLabel;html=1;align=center;verticalAlign=middle;resizable=0;points=[];" parent="y3Y6H-X3qQzjZ2dYzm8i-77" vertex="1" connectable="0">
          <mxGeometry x="-0.8135" y="1" relative="1" as="geometry">
            <mxPoint x="-6" y="-8" as="offset" />
          </mxGeometry>
        </mxCell>
        <mxCell id="y3Y6H-X3qQzjZ2dYzm8i-78" value="" style="endArrow=none;html=1;rounded=0;fontFamily=Helvetica;fontSize=12;fontColor=default;exitX=1;exitY=0.5;exitDx=0;exitDy=0;entryX=0;entryY=0.5;entryDx=0;entryDy=0;" parent="1" source="y3Y6H-X3qQzjZ2dYzm8i-1" target="y3Y6H-X3qQzjZ2dYzm8i-74" edge="1">
          <mxGeometry width="50" height="50" relative="1" as="geometry">
            <mxPoint x="500" y="320" as="sourcePoint" />
            <mxPoint x="490" y="140" as="targetPoint" />
            <Array as="points">
              <mxPoint x="290" y="140" />
              <mxPoint x="430" y="140" />
            </Array>
          </mxGeometry>
        </mxCell>
        <mxCell id="BF22gdORD3tfmSY-qZLE-19" value="1" style="edgeLabel;html=1;align=center;verticalAlign=middle;resizable=0;points=[];" parent="y3Y6H-X3qQzjZ2dYzm8i-78" vertex="1" connectable="0">
          <mxGeometry x="0.8057" y="-1" relative="1" as="geometry">
            <mxPoint x="38" y="-11" as="offset" />
          </mxGeometry>
        </mxCell>
        <mxCell id="y3Y6H-X3qQzjZ2dYzm8i-79" value="TRANSFERE" style="shape=rhombus;perimeter=rhombusPerimeter;whiteSpace=wrap;html=1;align=center;rounded=0;strokeColor=default;verticalAlign=middle;fontFamily=Helvetica;fontSize=12;fontColor=default;fillColor=default;" parent="1" vertex="1">
          <mxGeometry x="510" y="500" width="130" height="60" as="geometry" />
        </mxCell>
        <mxCell id="y3Y6H-X3qQzjZ2dYzm8i-80" value="TRANSFERE" style="shape=rhombus;perimeter=rhombusPerimeter;whiteSpace=wrap;html=1;align=center;rounded=0;strokeColor=default;verticalAlign=middle;fontFamily=Helvetica;fontSize=12;fontColor=default;fillColor=default;" parent="1" vertex="1">
          <mxGeometry x="510" y="215" width="130" height="60" as="geometry" />
        </mxCell>
        <mxCell id="y3Y6H-X3qQzjZ2dYzm8i-81" value="" style="endArrow=none;html=1;rounded=0;fontFamily=Helvetica;fontSize=12;fontColor=default;exitX=0.5;exitY=0;exitDx=0;exitDy=0;entryX=0.869;entryY=1.076;entryDx=0;entryDy=0;entryPerimeter=0;" parent="1" source="y3Y6H-X3qQzjZ2dYzm8i-27" edge="1" target="y3Y6H-X3qQzjZ2dYzm8i-1">
          <mxGeometry width="50" height="50" relative="1" as="geometry">
            <mxPoint x="380" y="450" as="sourcePoint" />
            <mxPoint x="275" y="340" as="targetPoint" />
          </mxGeometry>
        </mxCell>
        <mxCell id="BF22gdORD3tfmSY-qZLE-1" value="1" style="edgeLabel;html=1;align=center;verticalAlign=middle;resizable=0;points=[];" parent="y3Y6H-X3qQzjZ2dYzm8i-81" vertex="1" connectable="0">
          <mxGeometry x="-0.7751" y="-1" relative="1" as="geometry">
            <mxPoint x="14" y="12" as="offset" />
          </mxGeometry>
        </mxCell>
        <mxCell id="y3Y6H-X3qQzjZ2dYzm8i-83" value="" style="endArrow=none;html=1;rounded=0;fontFamily=Helvetica;fontSize=12;fontColor=default;entryX=0.5;entryY=1;entryDx=0;entryDy=0;exitX=1;exitY=0;exitDx=0;exitDy=0;" parent="1" target="y3Y6H-X3qQzjZ2dYzm8i-79" edge="1">
          <mxGeometry width="50" height="50" relative="1" as="geometry">
            <mxPoint x="325" y="680" as="sourcePoint" />
            <mxPoint x="330" y="400" as="targetPoint" />
            <Array as="points">
              <mxPoint x="575" y="680" />
            </Array>
          </mxGeometry>
        </mxCell>
        <mxCell id="BF22gdORD3tfmSY-qZLE-6" value="M" style="edgeLabel;html=1;align=center;verticalAlign=middle;resizable=0;points=[];" parent="y3Y6H-X3qQzjZ2dYzm8i-83" vertex="1" connectable="0">
          <mxGeometry x="0.9592" relative="1" as="geometry">
            <mxPoint x="15" y="-3" as="offset" />
          </mxGeometry>
        </mxCell>
        <mxCell id="y3Y6H-X3qQzjZ2dYzm8i-84" value="TRANSACOES" style="rounded=1;whiteSpace=wrap;html=1;arcSize=27;" parent="1" vertex="1">
          <mxGeometry x="520" y="360" width="120" height="40" as="geometry" />
        </mxCell>
        <mxCell id="y3Y6H-X3qQzjZ2dYzm8i-85" value="VALOR" style="ellipse;whiteSpace=wrap;html=1;" parent="1" vertex="1">
          <mxGeometry x="380" y="360" width="80" height="30" as="geometry" />
        </mxCell>
        <mxCell id="y3Y6H-X3qQzjZ2dYzm8i-86" value="TIPO" style="ellipse;whiteSpace=wrap;html=1;" parent="1" vertex="1">
          <mxGeometry x="380" y="395" width="80" height="30" as="geometry" />
        </mxCell>
        <mxCell id="y3Y6H-X3qQzjZ2dYzm8i-87" value="&lt;u&gt;ID&lt;/u&gt;" style="ellipse;whiteSpace=wrap;html=1;" parent="1" vertex="1">
          <mxGeometry x="414" y="430" width="80" height="30" as="geometry" />
        </mxCell>
        <mxCell id="y3Y6H-X3qQzjZ2dYzm8i-88" value="" style="endArrow=none;html=1;rounded=0;fontFamily=Helvetica;fontSize=12;fontColor=default;entryX=0;entryY=0.5;entryDx=0;entryDy=0;" parent="1" source="y3Y6H-X3qQzjZ2dYzm8i-85" target="y3Y6H-X3qQzjZ2dYzm8i-84" edge="1">
          <mxGeometry width="50" height="50" relative="1" as="geometry">
            <mxPoint x="280" y="450" as="sourcePoint" />
            <mxPoint x="330" y="400" as="targetPoint" />
          </mxGeometry>
        </mxCell>
        <mxCell id="y3Y6H-X3qQzjZ2dYzm8i-89" value="" style="endArrow=none;html=1;rounded=0;fontFamily=Helvetica;fontSize=12;fontColor=default;exitX=1;exitY=0.5;exitDx=0;exitDy=0;entryX=0;entryY=0.5;entryDx=0;entryDy=0;" parent="1" source="y3Y6H-X3qQzjZ2dYzm8i-86" target="y3Y6H-X3qQzjZ2dYzm8i-84" edge="1">
          <mxGeometry width="50" height="50" relative="1" as="geometry">
            <mxPoint x="470" y="387" as="sourcePoint" />
            <mxPoint x="500" y="400" as="targetPoint" />
          </mxGeometry>
        </mxCell>
        <mxCell id="y3Y6H-X3qQzjZ2dYzm8i-90" value="" style="endArrow=none;html=1;rounded=0;fontFamily=Helvetica;fontSize=12;fontColor=default;exitX=0.5;exitY=0;exitDx=0;exitDy=0;entryX=0;entryY=0.5;entryDx=0;entryDy=0;" parent="1" source="y3Y6H-X3qQzjZ2dYzm8i-87" target="y3Y6H-X3qQzjZ2dYzm8i-84" edge="1">
          <mxGeometry width="50" height="50" relative="1" as="geometry">
            <mxPoint x="470" y="435" as="sourcePoint" />
            <mxPoint x="530" y="390" as="targetPoint" />
          </mxGeometry>
        </mxCell>
        <mxCell id="y3Y6H-X3qQzjZ2dYzm8i-91" value="" style="endArrow=none;html=1;rounded=0;fontFamily=Helvetica;fontSize=12;fontColor=default;exitX=0.5;exitY=0;exitDx=0;exitDy=0;entryX=0.447;entryY=1.094;entryDx=0;entryDy=0;entryPerimeter=0;" parent="1" source="y3Y6H-X3qQzjZ2dYzm8i-79" target="y3Y6H-X3qQzjZ2dYzm8i-84" edge="1">
          <mxGeometry width="50" height="50" relative="1" as="geometry">
            <mxPoint x="570" y="460" as="sourcePoint" />
            <mxPoint x="620" y="410" as="targetPoint" />
          </mxGeometry>
        </mxCell>
        <mxCell id="BF22gdORD3tfmSY-qZLE-5" value="N" style="edgeLabel;html=1;align=center;verticalAlign=middle;resizable=0;points=[];" parent="y3Y6H-X3qQzjZ2dYzm8i-91" vertex="1" connectable="0">
          <mxGeometry x="-0.7076" y="-2" relative="1" as="geometry">
            <mxPoint x="13" y="9" as="offset" />
          </mxGeometry>
        </mxCell>
        <mxCell id="y3Y6H-X3qQzjZ2dYzm8i-92" value="" style="endArrow=none;html=1;rounded=0;fontFamily=Helvetica;fontSize=12;fontColor=default;entryX=0.5;entryY=1;entryDx=0;entryDy=0;exitX=0.472;exitY=0.032;exitDx=0;exitDy=0;exitPerimeter=0;" parent="1" source="y3Y6H-X3qQzjZ2dYzm8i-84" target="y3Y6H-X3qQzjZ2dYzm8i-80" edge="1">
          <mxGeometry width="50" height="50" relative="1" as="geometry">
            <mxPoint x="570" y="460" as="sourcePoint" />
            <mxPoint x="620" y="410" as="targetPoint" />
          </mxGeometry>
        </mxCell>
        <mxCell id="BF22gdORD3tfmSY-qZLE-17" value="N" style="edgeLabel;html=1;align=center;verticalAlign=middle;resizable=0;points=[];" parent="y3Y6H-X3qQzjZ2dYzm8i-92" vertex="1" connectable="0">
          <mxGeometry x="0.7297" y="1" relative="1" as="geometry">
            <mxPoint x="16" y="-6" as="offset" />
          </mxGeometry>
        </mxCell>
        <mxCell id="y3Y6H-X3qQzjZ2dYzm8i-93" value="" style="endArrow=none;html=1;rounded=0;fontFamily=Helvetica;fontSize=12;fontColor=default;entryX=0;entryY=1;entryDx=0;entryDy=0;exitX=0.915;exitY=0.38;exitDx=0;exitDy=0;exitPerimeter=0;" parent="1" source="y3Y6H-X3qQzjZ2dYzm8i-80" edge="1">
          <mxGeometry width="50" height="50" relative="1" as="geometry">
            <mxPoint x="587" y="371" as="sourcePoint" />
            <mxPoint x="795" y="160" as="targetPoint" />
          </mxGeometry>
        </mxCell>
        <mxCell id="BF22gdORD3tfmSY-qZLE-16" value="M" style="edgeLabel;html=1;align=center;verticalAlign=middle;resizable=0;points=[];" parent="y3Y6H-X3qQzjZ2dYzm8i-93" vertex="1" connectable="0">
          <mxGeometry x="-0.7975" y="-1" relative="1" as="geometry">
            <mxPoint x="-17" y="-1" as="offset" />
          </mxGeometry>
        </mxCell>
        <mxCell id="y3Y6H-X3qQzjZ2dYzm8i-94" value="" style="endArrow=none;html=1;rounded=0;fontFamily=Helvetica;fontSize=12;fontColor=default;entryX=1;entryY=0.75;entryDx=0;entryDy=0;exitX=0;exitY=0.5;exitDx=0;exitDy=0;" parent="1" source="y3Y6H-X3qQzjZ2dYzm8i-95" edge="1">
          <mxGeometry width="50" height="50" relative="1" as="geometry">
            <mxPoint x="1140" y="150" as="sourcePoint" />
            <mxPoint x="895" y="150" as="targetPoint" />
          </mxGeometry>
        </mxCell>
        <mxCell id="BF22gdORD3tfmSY-qZLE-11" value="1" style="edgeLabel;html=1;align=center;verticalAlign=middle;resizable=0;points=[];" parent="y3Y6H-X3qQzjZ2dYzm8i-94" vertex="1" connectable="0">
          <mxGeometry x="-0.7692" y="2" relative="1" as="geometry">
            <mxPoint x="8" y="-12" as="offset" />
          </mxGeometry>
        </mxCell>
        <mxCell id="y3Y6H-X3qQzjZ2dYzm8i-95" value="DONO_DE" style="shape=rhombus;perimeter=rhombusPerimeter;whiteSpace=wrap;html=1;align=center;rounded=0;strokeColor=default;verticalAlign=middle;fontFamily=Helvetica;fontSize=12;fontColor=default;fillColor=default;" parent="1" vertex="1">
          <mxGeometry x="980" y="120" width="130" height="60" as="geometry" />
        </mxCell>
        <mxCell id="y3Y6H-X3qQzjZ2dYzm8i-97" value="" style="endArrow=none;html=1;rounded=0;fontFamily=Helvetica;fontSize=12;fontColor=default;exitX=0;exitY=0.25;exitDx=0;exitDy=0;entryX=1;entryY=0.5;entryDx=0;entryDy=0;" parent="1" source="BF22gdORD3tfmSY-qZLE-124" target="y3Y6H-X3qQzjZ2dYzm8i-95" edge="1">
          <mxGeometry width="50" height="50" relative="1" as="geometry">
            <mxPoint x="1170" y="150" as="sourcePoint" />
            <mxPoint x="1200" y="150" as="targetPoint" />
          </mxGeometry>
        </mxCell>
        <mxCell id="BF22gdORD3tfmSY-qZLE-13" value="N" style="edgeLabel;html=1;align=center;verticalAlign=middle;resizable=0;points=[];" parent="y3Y6H-X3qQzjZ2dYzm8i-97" vertex="1" connectable="0">
          <mxGeometry x="0.8604" relative="1" as="geometry">
            <mxPoint x="-7" y="-10" as="offset" />
          </mxGeometry>
        </mxCell>
        <mxCell id="y3Y6H-X3qQzjZ2dYzm8i-98" value="FATURA" style="ellipse;whiteSpace=wrap;html=1;" parent="1" vertex="1">
          <mxGeometry x="1140" y="50" width="90" height="30" as="geometry" />
        </mxCell>
        <mxCell id="y3Y6H-X3qQzjZ2dYzm8i-99" value="NUM_CARTAO" style="ellipse;whiteSpace=wrap;html=1;" parent="1" vertex="1">
          <mxGeometry x="1080" y="80" width="90" height="30" as="geometry" />
        </mxCell>
        <mxCell id="y3Y6H-X3qQzjZ2dYzm8i-100" value="&lt;font style=&quot;font-size: 9px;&quot;&gt;COD_SEGURANCA&lt;/font&gt;" style="ellipse;whiteSpace=wrap;html=1;" parent="1" vertex="1">
          <mxGeometry x="1196" y="90" width="90" height="30" as="geometry" />
        </mxCell>
        <mxCell id="y3Y6H-X3qQzjZ2dYzm8i-101" value="" style="endArrow=none;html=1;rounded=0;fontFamily=Helvetica;fontSize=12;fontColor=default;entryX=0.5;entryY=1;entryDx=0;entryDy=0;exitX=0;exitY=0;exitDx=0;exitDy=0;" parent="1" source="BF22gdORD3tfmSY-qZLE-124" target="y3Y6H-X3qQzjZ2dYzm8i-99" edge="1">
          <mxGeometry width="50" height="50" relative="1" as="geometry">
            <mxPoint x="1230" y="130" as="sourcePoint" />
            <mxPoint x="1220" y="160" as="targetPoint" />
          </mxGeometry>
        </mxCell>
        <mxCell id="y3Y6H-X3qQzjZ2dYzm8i-102" value="" style="endArrow=none;html=1;rounded=0;fontFamily=Helvetica;fontSize=12;fontColor=default;entryX=0.5;entryY=1;entryDx=0;entryDy=0;exitX=0.18;exitY=-0.024;exitDx=0;exitDy=0;exitPerimeter=0;" parent="1" source="BF22gdORD3tfmSY-qZLE-124" target="y3Y6H-X3qQzjZ2dYzm8i-98" edge="1">
          <mxGeometry width="50" height="50" relative="1" as="geometry">
            <mxPoint x="1230" y="130" as="sourcePoint" />
            <mxPoint x="1325" y="105" as="targetPoint" />
          </mxGeometry>
        </mxCell>
        <mxCell id="y3Y6H-X3qQzjZ2dYzm8i-104" value="" style="endArrow=none;html=1;rounded=0;fontFamily=Helvetica;fontSize=12;fontColor=default;entryX=0.5;entryY=1;entryDx=0;entryDy=0;exitX=0.322;exitY=0.064;exitDx=0;exitDy=0;exitPerimeter=0;" parent="1" source="BF22gdORD3tfmSY-qZLE-124" target="y3Y6H-X3qQzjZ2dYzm8i-100" edge="1">
          <mxGeometry width="50" height="50" relative="1" as="geometry">
            <mxPoint x="1230" y="130" as="sourcePoint" />
            <mxPoint x="1435" y="105" as="targetPoint" />
          </mxGeometry>
        </mxCell>
        <mxCell id="y3Y6H-X3qQzjZ2dYzm8i-105" value="DONO_DE" style="shape=rhombus;perimeter=rhombusPerimeter;whiteSpace=wrap;html=1;align=center;rounded=0;strokeColor=default;verticalAlign=middle;fontFamily=Helvetica;fontSize=12;fontColor=default;fillColor=default;" parent="1" vertex="1">
          <mxGeometry y="630" width="130" height="60" as="geometry" />
        </mxCell>
        <mxCell id="y3Y6H-X3qQzjZ2dYzm8i-106" value="" style="endArrow=none;html=1;rounded=0;fontFamily=Helvetica;fontSize=12;fontColor=default;entryX=0;entryY=0.5;entryDx=0;entryDy=0;exitX=1;exitY=0.5;exitDx=0;exitDy=0;" parent="1" source="y3Y6H-X3qQzjZ2dYzm8i-105" target="BF22gdORD3tfmSY-qZLE-32" edge="1">
          <mxGeometry width="50" height="50" relative="1" as="geometry">
            <mxPoint x="210" y="590" as="sourcePoint" />
            <mxPoint x="225" y="700" as="targetPoint" />
          </mxGeometry>
        </mxCell>
        <mxCell id="BF22gdORD3tfmSY-qZLE-27" value="1" style="edgeLabel;html=1;align=center;verticalAlign=middle;resizable=0;points=[];" parent="y3Y6H-X3qQzjZ2dYzm8i-106" vertex="1" connectable="0">
          <mxGeometry x="-0.637" relative="1" as="geometry">
            <mxPoint x="-18" y="-17" as="offset" />
          </mxGeometry>
        </mxCell>
        <mxCell id="y3Y6H-X3qQzjZ2dYzm8i-108" value="" style="endArrow=none;html=1;rounded=0;fontFamily=Helvetica;fontSize=12;fontColor=default;exitX=0;exitY=0.5;exitDx=0;exitDy=0;entryX=1;entryY=0.5;entryDx=0;entryDy=0;" parent="1" source="y3Y6H-X3qQzjZ2dYzm8i-105" target="BF22gdORD3tfmSY-qZLE-35" edge="1">
          <mxGeometry width="50" height="50" relative="1" as="geometry">
            <mxPoint y="600" as="sourcePoint" />
            <mxPoint x="-60" y="660" as="targetPoint" />
          </mxGeometry>
        </mxCell>
        <mxCell id="BF22gdORD3tfmSY-qZLE-28" value="N" style="edgeLabel;html=1;align=center;verticalAlign=middle;resizable=0;points=[];" parent="y3Y6H-X3qQzjZ2dYzm8i-108" vertex="1" connectable="0">
          <mxGeometry x="-0.3705" y="-3" relative="1" as="geometry">
            <mxPoint x="19" y="-12" as="offset" />
          </mxGeometry>
        </mxCell>
        <mxCell id="y3Y6H-X3qQzjZ2dYzm8i-111" value="" style="endArrow=none;html=1;rounded=0;fontFamily=Helvetica;fontSize=12;fontColor=default;entryX=0.25;entryY=1;entryDx=0;entryDy=0;exitX=1;exitY=0.5;exitDx=0;exitDy=0;" parent="1" source="BF22gdORD3tfmSY-qZLE-88" target="y3Y6H-X3qQzjZ2dYzm8i-1" edge="1">
          <mxGeometry width="50" height="50" relative="1" as="geometry">
            <mxPoint x="-300" y="440" as="sourcePoint" />
            <mxPoint x="330" y="440" as="targetPoint" />
            <Array as="points">
              <mxPoint x="200" y="440" />
            </Array>
          </mxGeometry>
        </mxCell>
        <mxCell id="BF22gdORD3tfmSY-qZLE-20" value="1" style="edgeLabel;html=1;align=center;verticalAlign=middle;resizable=0;points=[];" parent="y3Y6H-X3qQzjZ2dYzm8i-111" vertex="1" connectable="0">
          <mxGeometry x="-0.9307" relative="1" as="geometry">
            <mxPoint x="-21" y="-15" as="offset" />
          </mxGeometry>
        </mxCell>
        <mxCell id="y3Y6H-X3qQzjZ2dYzm8i-112" value="" style="endArrow=none;html=1;rounded=0;fontFamily=Helvetica;fontSize=12;fontColor=default;entryX=0.081;entryY=1.026;entryDx=0;entryDy=0;entryPerimeter=0;exitX=0.5;exitY=1;exitDx=0;exitDy=0;" parent="1" source="BF22gdORD3tfmSY-qZLE-89" target="y3Y6H-X3qQzjZ2dYzm8i-1" edge="1">
          <mxGeometry width="50" height="50" relative="1" as="geometry">
            <mxPoint x="-255" y="370" as="sourcePoint" />
            <mxPoint x="330" y="440" as="targetPoint" />
            <Array as="points">
              <mxPoint x="-435" y="400" />
              <mxPoint x="-265" y="400" />
              <mxPoint x="180" y="400" />
            </Array>
          </mxGeometry>
        </mxCell>
        <mxCell id="BF22gdORD3tfmSY-qZLE-22" value="1" style="edgeLabel;html=1;align=center;verticalAlign=middle;resizable=0;points=[];" parent="y3Y6H-X3qQzjZ2dYzm8i-112" vertex="1" connectable="0">
          <mxGeometry x="-0.9516" y="3" relative="1" as="geometry">
            <mxPoint x="12" y="-8" as="offset" />
          </mxGeometry>
        </mxCell>
        <mxCell id="y3Y6H-X3qQzjZ2dYzm8i-113" value="" style="endArrow=none;html=1;rounded=0;fontFamily=Helvetica;fontSize=12;fontColor=default;exitX=1;exitY=0.5;exitDx=0;exitDy=0;entryX=0.575;entryY=1.076;entryDx=0;entryDy=0;entryPerimeter=0;" parent="1" source="BF22gdORD3tfmSY-qZLE-68" edge="1" target="y3Y6H-X3qQzjZ2dYzm8i-1">
          <mxGeometry width="50" height="50" relative="1" as="geometry">
            <mxPoint x="-269.9999999999998" y="570" as="sourcePoint" />
            <mxPoint x="240" y="340" as="targetPoint" />
            <Array as="points">
              <mxPoint x="-160" y="575" />
              <mxPoint x="-160" y="500" />
              <mxPoint x="240" y="500" />
            </Array>
          </mxGeometry>
        </mxCell>
        <mxCell id="BF22gdORD3tfmSY-qZLE-25" value="1" style="edgeLabel;html=1;align=center;verticalAlign=middle;resizable=0;points=[];" parent="y3Y6H-X3qQzjZ2dYzm8i-113" vertex="1" connectable="0">
          <mxGeometry x="-0.958" y="2" relative="1" as="geometry">
            <mxPoint x="-15" y="-13" as="offset" />
          </mxGeometry>
        </mxCell>
        <mxCell id="y3Y6H-X3qQzjZ2dYzm8i-122" value="" style="endArrow=none;html=1;rounded=0;fontFamily=Helvetica;fontSize=12;fontColor=default;exitX=1;exitY=0.5;exitDx=0;exitDy=0;entryX=0;entryY=0.5;entryDx=0;entryDy=0;" parent="1" source="BF22gdORD3tfmSY-qZLE-31" target="BF22gdORD3tfmSY-qZLE-88" edge="1">
          <mxGeometry width="50" height="50" relative="1" as="geometry">
            <mxPoint x="-629.2" y="435.0799999999999" as="sourcePoint" />
            <mxPoint x="-440.4000000000001" y="436.49" as="targetPoint" />
          </mxGeometry>
        </mxCell>
        <mxCell id="BF22gdORD3tfmSY-qZLE-21" value="N" style="edgeLabel;html=1;align=center;verticalAlign=middle;resizable=0;points=[];" parent="y3Y6H-X3qQzjZ2dYzm8i-122" vertex="1" connectable="0">
          <mxGeometry x="0.6522" y="2" relative="1" as="geometry">
            <mxPoint x="22" y="-9" as="offset" />
          </mxGeometry>
        </mxCell>
        <mxCell id="y3Y6H-X3qQzjZ2dYzm8i-123" value="&lt;u&gt;ID_SEGURO&lt;/u&gt;" style="ellipse;whiteSpace=wrap;html=1;" parent="1" vertex="1">
          <mxGeometry x="-1130" y="370" width="100" height="30" as="geometry" />
        </mxCell>
        <mxCell id="y3Y6H-X3qQzjZ2dYzm8i-126" value="" style="endArrow=none;html=1;rounded=0;fontFamily=Helvetica;fontSize=12;fontColor=default;entryX=0.5;entryY=0;entryDx=0;entryDy=0;exitX=0.5;exitY=1;exitDx=0;exitDy=0;" parent="1" source="y3Y6H-X3qQzjZ2dYzm8i-123" target="BF22gdORD3tfmSY-qZLE-70" edge="1">
          <mxGeometry width="50" height="50" relative="1" as="geometry">
            <mxPoint x="-740" y="400" as="sourcePoint" />
            <mxPoint x="-680" y="420" as="targetPoint" />
          </mxGeometry>
        </mxCell>
        <mxCell id="y3Y6H-X3qQzjZ2dYzm8i-127" value="" style="endArrow=none;html=1;rounded=0;fontFamily=Helvetica;fontSize=12;fontColor=default;entryX=0.06;entryY=0.41;entryDx=0;entryDy=0;entryPerimeter=0;exitX=1;exitY=0.25;exitDx=0;exitDy=0;" parent="1" source="BF22gdORD3tfmSY-qZLE-53" target="BF22gdORD3tfmSY-qZLE-68" edge="1">
          <mxGeometry width="50" height="50" relative="1" as="geometry">
            <mxPoint x="-530" y="570" as="sourcePoint" />
            <mxPoint x="-414.29999999999995" y="562.71" as="targetPoint" />
          </mxGeometry>
        </mxCell>
        <mxCell id="BF22gdORD3tfmSY-qZLE-26" value="N" style="edgeLabel;html=1;align=center;verticalAlign=middle;resizable=0;points=[];" parent="y3Y6H-X3qQzjZ2dYzm8i-127" vertex="1" connectable="0">
          <mxGeometry x="0.2292" relative="1" as="geometry">
            <mxPoint x="39" y="-9" as="offset" />
          </mxGeometry>
        </mxCell>
        <mxCell id="y3Y6H-X3qQzjZ2dYzm8i-128" value="" style="endArrow=none;html=1;rounded=0;fontFamily=Helvetica;fontSize=12;fontColor=default;entryX=0.043;entryY=0.587;entryDx=0;entryDy=0;exitX=1;exitY=0.5;exitDx=0;exitDy=0;entryPerimeter=0;" parent="1" source="BF22gdORD3tfmSY-qZLE-53" target="BF22gdORD3tfmSY-qZLE-68" edge="1">
          <mxGeometry width="50" height="50" relative="1" as="geometry">
            <mxPoint x="-530" y="580" as="sourcePoint" />
            <mxPoint x="-419.9999999999998" y="575.04" as="targetPoint" />
          </mxGeometry>
        </mxCell>
        <mxCell id="y3Y6H-X3qQzjZ2dYzm8i-135" value="&lt;span style=&quot;font-size: 10px;&quot;&gt;DATA_PAGAMENTO&lt;/span&gt;" style="ellipse;whiteSpace=wrap;html=1;" parent="1" vertex="1">
          <mxGeometry x="-695" y="630" width="110" height="30" as="geometry" />
        </mxCell>
        <mxCell id="y3Y6H-X3qQzjZ2dYzm8i-136" value="" style="endArrow=none;html=1;rounded=0;fontFamily=Helvetica;fontSize=12;fontColor=default;exitX=0.5;exitY=0;exitDx=0;exitDy=0;entryX=0.25;entryY=1;entryDx=0;entryDy=0;" parent="1" source="y3Y6H-X3qQzjZ2dYzm8i-135" target="BF22gdORD3tfmSY-qZLE-53" edge="1">
          <mxGeometry width="50" height="50" relative="1" as="geometry">
            <mxPoint x="-710" y="625" as="sourcePoint" />
            <mxPoint x="-630" y="580" as="targetPoint" />
          </mxGeometry>
        </mxCell>
        <mxCell id="y3Y6H-X3qQzjZ2dYzm8i-137" value="" style="endArrow=none;html=1;rounded=0;fontFamily=Helvetica;fontSize=12;fontColor=default;entryX=0.5;entryY=1;entryDx=0;entryDy=0;exitX=0.5;exitY=0;exitDx=0;exitDy=0;" parent="1" source="BF22gdORD3tfmSY-qZLE-89" target="BF22gdORD3tfmSY-qZLE-54" edge="1">
          <mxGeometry width="50" height="50" relative="1" as="geometry">
            <mxPoint x="-259.24528301886767" y="282.5471698113206" as="sourcePoint" />
            <mxPoint x="-255" y="220" as="targetPoint" />
          </mxGeometry>
        </mxCell>
        <mxCell id="BF22gdORD3tfmSY-qZLE-24" value="N" style="edgeLabel;html=1;align=center;verticalAlign=middle;resizable=0;points=[];" parent="y3Y6H-X3qQzjZ2dYzm8i-137" vertex="1" connectable="0">
          <mxGeometry x="-0.6829" relative="1" as="geometry">
            <mxPoint x="17" y="21" as="offset" />
          </mxGeometry>
        </mxCell>
        <mxCell id="BF22gdORD3tfmSY-qZLE-175" value="N" style="edgeLabel;html=1;align=center;verticalAlign=middle;resizable=0;points=[];" parent="y3Y6H-X3qQzjZ2dYzm8i-137" vertex="1" connectable="0">
          <mxGeometry x="-0.2516" y="-1" relative="1" as="geometry">
            <mxPoint x="14" y="8" as="offset" />
          </mxGeometry>
        </mxCell>
        <mxCell id="y3Y6H-X3qQzjZ2dYzm8i-138" value="&lt;font size=&quot;1&quot;&gt;&lt;u&gt;CÃD_CONTRATO&lt;/u&gt;&lt;/font&gt;" style="ellipse;whiteSpace=wrap;html=1;" parent="1" vertex="1">
          <mxGeometry x="-630" y="265" width="100" height="30" as="geometry" />
        </mxCell>
        <mxCell id="y3Y6H-X3qQzjZ2dYzm8i-139" value="" style="endArrow=none;html=1;rounded=0;fontFamily=Helvetica;fontSize=12;fontColor=default;entryX=0.5;entryY=0;entryDx=0;entryDy=0;exitX=0.119;exitY=1.026;exitDx=0;exitDy=0;exitPerimeter=0;" parent="1" source="BF22gdORD3tfmSY-qZLE-54" target="y3Y6H-X3qQzjZ2dYzm8i-138" edge="1">
          <mxGeometry width="50" height="50" relative="1" as="geometry">
            <mxPoint x="-255" y="180" as="sourcePoint" />
            <mxPoint x="-540" y="290" as="targetPoint" />
          </mxGeometry>
        </mxCell>
        <mxCell id="BF22gdORD3tfmSY-qZLE-14" value="" style="endArrow=none;html=1;rounded=0;fontFamily=Helvetica;fontSize=12;fontColor=default;entryX=0.14;entryY=1.111;entryDx=0;entryDy=0;exitX=1;exitY=0.5;exitDx=0;exitDy=0;entryPerimeter=0;" parent="1" source="y3Y6H-X3qQzjZ2dYzm8i-80" edge="1">
          <mxGeometry width="50" height="50" relative="1" as="geometry">
            <mxPoint x="650" y="255" as="sourcePoint" />
            <mxPoint x="809" y="164.43999999999983" as="targetPoint" />
          </mxGeometry>
        </mxCell>
        <mxCell id="BF22gdORD3tfmSY-qZLE-29" value="TELEFONE" style="ellipse;shape=doubleEllipse;margin=3;whiteSpace=wrap;html=1;align=center;" parent="1" vertex="1">
          <mxGeometry x="940" y="300" width="100" height="40" as="geometry" />
        </mxCell>
        <mxCell id="BF22gdORD3tfmSY-qZLE-30" value="TELEFONE" style="ellipse;shape=doubleEllipse;margin=3;whiteSpace=wrap;html=1;align=center;" parent="1" vertex="1">
          <mxGeometry x="140" y="-220" width="100" height="40" as="geometry" />
        </mxCell>
        <mxCell id="BF22gdORD3tfmSY-qZLE-31" value="SEGUROS" style="whiteSpace=wrap;html=1;align=center;" parent="1" vertex="1">
          <mxGeometry x="-730" y="430" width="100" height="40" as="geometry" />
        </mxCell>
        <mxCell id="BF22gdORD3tfmSY-qZLE-32" value="CONTA POUPANÃA" style="whiteSpace=wrap;html=1;align=center;" parent="1" vertex="1">
          <mxGeometry x="225" y="680" width="100" height="40" as="geometry" />
        </mxCell>
        <mxCell id="BF22gdORD3tfmSY-qZLE-35" value="CARTAO_DE_DEBITO" style="shape=ext;margin=3;double=1;whiteSpace=wrap;html=1;align=center;" parent="1" vertex="1">
          <mxGeometry x="-210" y="680" width="140" height="40" as="geometry" />
        </mxCell>
        <mxCell id="BF22gdORD3tfmSY-qZLE-38" value="NUM_CARTAO_D" style="ellipse;whiteSpace=wrap;html=1;" parent="1" vertex="1">
          <mxGeometry x="-370" y="760" width="120" height="30" as="geometry" />
        </mxCell>
        <mxCell id="BF22gdORD3tfmSY-qZLE-39" value="" style="endArrow=none;html=1;rounded=0;fontFamily=Helvetica;fontSize=12;fontColor=default;exitX=0.5;exitY=0;exitDx=0;exitDy=0;entryX=0;entryY=1;entryDx=0;entryDy=0;" parent="1" source="BF22gdORD3tfmSY-qZLE-38" target="BF22gdORD3tfmSY-qZLE-35" edge="1">
          <mxGeometry width="50" height="50" relative="1" as="geometry">
            <mxPoint x="177.5" y="580" as="sourcePoint" />
            <mxPoint x="-187.5" y="700" as="targetPoint" />
          </mxGeometry>
        </mxCell>
        <mxCell id="BF22gdORD3tfmSY-qZLE-40" value="DATA_VALIDADE" style="ellipse;whiteSpace=wrap;html=1;" parent="1" vertex="1">
          <mxGeometry x="-300" y="800" width="120" height="30" as="geometry" />
        </mxCell>
        <mxCell id="BF22gdORD3tfmSY-qZLE-41" value="" style="endArrow=none;html=1;rounded=0;fontFamily=Helvetica;fontSize=12;fontColor=default;exitX=0.5;exitY=0;exitDx=0;exitDy=0;entryX=0.25;entryY=1;entryDx=0;entryDy=0;" parent="1" source="BF22gdORD3tfmSY-qZLE-40" target="BF22gdORD3tfmSY-qZLE-35" edge="1">
          <mxGeometry width="50" height="50" relative="1" as="geometry">
            <mxPoint x="307.5" y="615" as="sourcePoint" />
            <mxPoint x="-65" y="720" as="targetPoint" />
          </mxGeometry>
        </mxCell>
        <mxCell id="BF22gdORD3tfmSY-qZLE-44" value="NOME_NO_CARTAO" style="ellipse;whiteSpace=wrap;html=1;" parent="1" vertex="1">
          <mxGeometry x="-105" y="800" width="130" height="30" as="geometry" />
        </mxCell>
        <mxCell id="BF22gdORD3tfmSY-qZLE-45" value="" style="endArrow=none;html=1;rounded=0;fontFamily=Helvetica;fontSize=12;fontColor=default;exitX=0.5;exitY=0;exitDx=0;exitDy=0;entryX=0.436;entryY=1.043;entryDx=0;entryDy=0;entryPerimeter=0;" parent="1" source="BF22gdORD3tfmSY-qZLE-44" target="BF22gdORD3tfmSY-qZLE-35" edge="1">
          <mxGeometry width="50" height="50" relative="1" as="geometry">
            <mxPoint x="437.5" y="652.12" as="sourcePoint" />
            <mxPoint x="-148.96000000000004" y="690.0000000000001" as="targetPoint" />
          </mxGeometry>
        </mxCell>
        <mxCell id="BF22gdORD3tfmSY-qZLE-46" value="COD_SEGURANCA" style="ellipse;whiteSpace=wrap;html=1;" parent="1" vertex="1">
          <mxGeometry x="-50" y="745.4" width="130" height="30" as="geometry" />
        </mxCell>
        <mxCell id="BF22gdORD3tfmSY-qZLE-47" value="" style="endArrow=none;html=1;rounded=0;fontFamily=Helvetica;fontSize=12;fontColor=default;exitX=0.5;exitY=0;exitDx=0;exitDy=0;entryX=0.937;entryY=0.985;entryDx=0;entryDy=0;entryPerimeter=0;" parent="1" source="BF22gdORD3tfmSY-qZLE-46" target="BF22gdORD3tfmSY-qZLE-35" edge="1">
          <mxGeometry width="50" height="50" relative="1" as="geometry">
            <mxPoint x="515" y="610.12" as="sourcePoint" />
            <mxPoint x="-71.5" y="640" as="targetPoint" />
          </mxGeometry>
        </mxCell>
        <mxCell id="BF22gdORD3tfmSY-qZLE-48" value="STATUS" style="ellipse;whiteSpace=wrap;html=1;" parent="1" vertex="1">
          <mxGeometry x="-390" y="715.4" width="90" height="30" as="geometry" />
        </mxCell>
        <mxCell id="BF22gdORD3tfmSY-qZLE-49" value="" style="endArrow=none;html=1;rounded=0;fontFamily=Helvetica;fontSize=12;fontColor=default;exitX=1;exitY=0.5;exitDx=0;exitDy=0;entryX=0;entryY=0.5;entryDx=0;entryDy=0;" parent="1" source="BF22gdORD3tfmSY-qZLE-48" target="BF22gdORD3tfmSY-qZLE-35" edge="1">
          <mxGeometry width="50" height="50" relative="1" as="geometry">
            <mxPoint x="127.5" y="530" as="sourcePoint" />
            <mxPoint x="-260" y="630" as="targetPoint" />
          </mxGeometry>
        </mxCell>
        <mxCell id="BF22gdORD3tfmSY-qZLE-50" value="TIPO_BAND" style="ellipse;whiteSpace=wrap;html=1;" parent="1" vertex="1">
          <mxGeometry x="-360" y="680" width="90" height="30" as="geometry" />
        </mxCell>
        <mxCell id="BF22gdORD3tfmSY-qZLE-51" value="" style="endArrow=none;html=1;rounded=0;fontFamily=Helvetica;fontSize=12;fontColor=default;exitX=1;exitY=0.5;exitDx=0;exitDy=0;entryX=0;entryY=0.25;entryDx=0;entryDy=0;" parent="1" source="BF22gdORD3tfmSY-qZLE-50" target="BF22gdORD3tfmSY-qZLE-35" edge="1">
          <mxGeometry width="50" height="50" relative="1" as="geometry">
            <mxPoint x="172.5" y="485" as="sourcePoint" />
            <mxPoint x="-165" y="615" as="targetPoint" />
          </mxGeometry>
        </mxCell>
        <mxCell id="BF22gdORD3tfmSY-qZLE-53" value="EMPRESTIMOS" style="whiteSpace=wrap;html=1;align=center;" parent="1" vertex="1">
          <mxGeometry x="-630" y="555" width="90" height="40" as="geometry" />
        </mxCell>
        <mxCell id="BF22gdORD3tfmSY-qZLE-54" value="INVESTIMENTOS" style="whiteSpace=wrap;html=1;align=center;" parent="1" vertex="1">
          <mxGeometry x="-500" y="210" width="130" height="40" as="geometry" />
        </mxCell>
        <mxCell id="BF22gdORD3tfmSY-qZLE-58" value="&lt;span style=&quot;font-size: 10px;&quot;&gt;&lt;u&gt;COD_EMPRESTIMO&lt;/u&gt;&lt;/span&gt;" style="ellipse;whiteSpace=wrap;html=1;" parent="1" vertex="1">
          <mxGeometry x="-805" y="555" width="110" height="30" as="geometry" />
        </mxCell>
        <mxCell id="BF22gdORD3tfmSY-qZLE-59" value="" style="endArrow=none;html=1;rounded=0;fontFamily=Helvetica;fontSize=12;fontColor=default;entryX=0;entryY=0.25;entryDx=0;entryDy=0;exitX=1;exitY=0.5;exitDx=0;exitDy=0;" parent="1" source="BF22gdORD3tfmSY-qZLE-58" target="BF22gdORD3tfmSY-qZLE-53" edge="1">
          <mxGeometry width="50" height="50" relative="1" as="geometry">
            <mxPoint x="-1347" y="305" as="sourcePoint" />
            <mxPoint x="-645" y="595" as="targetPoint" />
          </mxGeometry>
        </mxCell>
        <mxCell id="BF22gdORD3tfmSY-qZLE-60" value="&lt;span style=&quot;font-size: 10px;&quot;&gt;TAXA_JUROS&lt;/span&gt;" style="ellipse;whiteSpace=wrap;html=1;" parent="1" vertex="1">
          <mxGeometry x="-770" y="600" width="110" height="30" as="geometry" />
        </mxCell>
        <mxCell id="BF22gdORD3tfmSY-qZLE-61" value="" style="endArrow=none;html=1;rounded=0;fontFamily=Helvetica;fontSize=12;fontColor=default;exitX=0.5;exitY=0;exitDx=0;exitDy=0;entryX=0;entryY=0.25;entryDx=0;entryDy=0;" parent="1" source="BF22gdORD3tfmSY-qZLE-60" target="BF22gdORD3tfmSY-qZLE-53" edge="1">
          <mxGeometry width="50" height="50" relative="1" as="geometry">
            <mxPoint x="-1257" y="362.5" as="sourcePoint" />
            <mxPoint x="-607" y="595" as="targetPoint" />
          </mxGeometry>
        </mxCell>
        <mxCell id="BF22gdORD3tfmSY-qZLE-65" value="&lt;span style=&quot;font-size: 10px;&quot;&gt;PARCELAMENTO&lt;/span&gt;" style="ellipse;whiteSpace=wrap;html=1;" parent="1" vertex="1">
          <mxGeometry x="-585" y="630" width="110" height="30" as="geometry" />
        </mxCell>
        <mxCell id="BF22gdORD3tfmSY-qZLE-66" value="" style="endArrow=none;html=1;rounded=0;fontFamily=Helvetica;fontSize=12;fontColor=default;exitX=0.5;exitY=0;exitDx=0;exitDy=0;entryX=0.5;entryY=1;entryDx=0;entryDy=0;" parent="1" source="BF22gdORD3tfmSY-qZLE-65" target="BF22gdORD3tfmSY-qZLE-53" edge="1">
          <mxGeometry width="50" height="50" relative="1" as="geometry">
            <mxPoint x="-590" y="630" as="sourcePoint" />
            <mxPoint x="-487" y="600" as="targetPoint" />
          </mxGeometry>
        </mxCell>
        <mxCell id="BF22gdORD3tfmSY-qZLE-68" value="POSSUI_EMPRESTIMOS" style="shape=rhombus;perimeter=rhombusPerimeter;whiteSpace=wrap;html=1;align=center;" parent="1" vertex="1">
          <mxGeometry x="-430" y="540" width="170" height="60" as="geometry" />
        </mxCell>
        <mxCell id="BF22gdORD3tfmSY-qZLE-70" value="TIPOS_SEGURO" style="whiteSpace=wrap;html=1;align=center;" parent="1" vertex="1">
          <mxGeometry x="-1100" y="425" width="105" height="40" as="geometry" />
        </mxCell>
        <mxCell id="BF22gdORD3tfmSY-qZLE-74" value="EH_DO_TIPO" style="shape=rhombus;perimeter=rhombusPerimeter;whiteSpace=wrap;html=1;align=center;" parent="1" vertex="1">
          <mxGeometry x="-930" y="420" width="120" height="60" as="geometry" />
        </mxCell>
        <mxCell id="BF22gdORD3tfmSY-qZLE-76" value="" style="endArrow=none;html=1;rounded=0;entryX=-0.026;entryY=0.325;entryDx=0;entryDy=0;exitX=0.94;exitY=0.376;exitDx=0;exitDy=0;exitPerimeter=0;entryPerimeter=0;" parent="1" source="BF22gdORD3tfmSY-qZLE-74" target="BF22gdORD3tfmSY-qZLE-31" edge="1">
          <mxGeometry width="50" height="50" relative="1" as="geometry">
            <mxPoint x="-780" y="370" as="sourcePoint" />
            <mxPoint x="-730" y="320" as="targetPoint" />
          </mxGeometry>
        </mxCell>
        <mxCell id="BF22gdORD3tfmSY-qZLE-78" value="1" style="edgeLabel;html=1;align=center;verticalAlign=middle;resizable=0;points=[];" parent="BF22gdORD3tfmSY-qZLE-76" vertex="1" connectable="0">
          <mxGeometry x="-0.5631" relative="1" as="geometry">
            <mxPoint x="-17" y="-10" as="offset" />
          </mxGeometry>
        </mxCell>
        <mxCell id="BF22gdORD3tfmSY-qZLE-79" value="" style="endArrow=none;html=1;rounded=0;entryX=0.989;entryY=0.591;entryDx=0;entryDy=0;entryPerimeter=0;exitX=0;exitY=0.5;exitDx=0;exitDy=0;" parent="1" source="BF22gdORD3tfmSY-qZLE-74" target="BF22gdORD3tfmSY-qZLE-70" edge="1">
          <mxGeometry width="50" height="50" relative="1" as="geometry">
            <mxPoint x="-770" y="450" as="sourcePoint" />
            <mxPoint x="-720" y="400" as="targetPoint" />
          </mxGeometry>
        </mxCell>
        <mxCell id="BF22gdORD3tfmSY-qZLE-80" value="N" style="edgeLabel;html=1;align=center;verticalAlign=middle;resizable=0;points=[];" parent="BF22gdORD3tfmSY-qZLE-79" vertex="1" connectable="0">
          <mxGeometry x="-0.7363" y="-2" relative="1" as="geometry">
            <mxPoint x="9" y="-8" as="offset" />
          </mxGeometry>
        </mxCell>
        <mxCell id="BF22gdORD3tfmSY-qZLE-81" value="CUSTO_ANUAL" style="ellipse;whiteSpace=wrap;html=1;" parent="1" vertex="1">
          <mxGeometry x="-1240" y="397.5" width="100" height="30" as="geometry" />
        </mxCell>
        <mxCell id="BF22gdORD3tfmSY-qZLE-82" value="" style="endArrow=none;html=1;rounded=0;fontFamily=Helvetica;fontSize=12;fontColor=default;entryX=0;entryY=0.5;entryDx=0;entryDy=0;exitX=0.5;exitY=1;exitDx=0;exitDy=0;" parent="1" source="BF22gdORD3tfmSY-qZLE-81" target="BF22gdORD3tfmSY-qZLE-70" edge="1">
          <mxGeometry width="50" height="50" relative="1" as="geometry">
            <mxPoint x="-850" y="427.5" as="sourcePoint" />
            <mxPoint x="-1157" y="452.5" as="targetPoint" />
          </mxGeometry>
        </mxCell>
        <mxCell id="BF22gdORD3tfmSY-qZLE-83" value="CUSTO_ANUAL" style="ellipse;whiteSpace=wrap;html=1;" parent="1" vertex="1">
          <mxGeometry x="-1270" y="470" width="100" height="30" as="geometry" />
        </mxCell>
        <mxCell id="BF22gdORD3tfmSY-qZLE-84" value="" style="endArrow=none;html=1;rounded=0;fontFamily=Helvetica;fontSize=12;fontColor=default;entryX=0;entryY=0.5;entryDx=0;entryDy=0;exitX=1;exitY=0.5;exitDx=0;exitDy=0;" parent="1" source="BF22gdORD3tfmSY-qZLE-83" target="BF22gdORD3tfmSY-qZLE-70" edge="1">
          <mxGeometry width="50" height="50" relative="1" as="geometry">
            <mxPoint x="-880" y="500" as="sourcePoint" />
            <mxPoint x="-1130" y="517.5" as="targetPoint" />
          </mxGeometry>
        </mxCell>
        <mxCell id="BF22gdORD3tfmSY-qZLE-85" value="TIPO_SEGURO" style="ellipse;whiteSpace=wrap;html=1;" parent="1" vertex="1">
          <mxGeometry x="-1220" y="525" width="100" height="30" as="geometry" />
        </mxCell>
        <mxCell id="BF22gdORD3tfmSY-qZLE-86" value="" style="endArrow=none;html=1;rounded=0;fontFamily=Helvetica;fontSize=12;fontColor=default;exitX=1;exitY=0.5;exitDx=0;exitDy=0;" parent="1" source="BF22gdORD3tfmSY-qZLE-85" target="BF22gdORD3tfmSY-qZLE-70" edge="1">
          <mxGeometry width="50" height="50" relative="1" as="geometry">
            <mxPoint x="-820" y="560" as="sourcePoint" />
            <mxPoint x="-1040" y="505" as="targetPoint" />
          </mxGeometry>
        </mxCell>
        <mxCell id="BF22gdORD3tfmSY-qZLE-88" value="POSSUI_SEGUROS" style="shape=rhombus;perimeter=rhombusPerimeter;whiteSpace=wrap;html=1;align=center;" parent="1" vertex="1">
          <mxGeometry x="-475" y="420" width="170" height="60" as="geometry" />
        </mxCell>
        <mxCell id="BF22gdORD3tfmSY-qZLE-89" value="POSSUI_INVESTIMENTOS" style="shape=rhombus;perimeter=rhombusPerimeter;whiteSpace=wrap;html=1;align=center;" parent="1" vertex="1">
          <mxGeometry x="-525" y="300" width="180" height="60" as="geometry" />
        </mxCell>
        <mxCell id="BF22gdORD3tfmSY-qZLE-91" value="&lt;u&gt;CÃD_CONTRATO&lt;/u&gt;" style="ellipse;whiteSpace=wrap;html=1;" parent="1" vertex="1">
          <mxGeometry x="-780" y="370" width="110" height="30" as="geometry" />
        </mxCell>
        <mxCell id="BF22gdORD3tfmSY-qZLE-92" value="" style="endArrow=none;html=1;rounded=0;fontFamily=Helvetica;fontSize=12;fontColor=default;entryX=0.5;entryY=0;entryDx=0;entryDy=0;exitX=0.5;exitY=1;exitDx=0;exitDy=0;" parent="1" source="BF22gdORD3tfmSY-qZLE-91" target="BF22gdORD3tfmSY-qZLE-31" edge="1">
          <mxGeometry width="50" height="50" relative="1" as="geometry">
            <mxPoint x="-370" y="320" as="sourcePoint" />
            <mxPoint x="-677" y="345" as="targetPoint" />
          </mxGeometry>
        </mxCell>
        <mxCell id="BF22gdORD3tfmSY-qZLE-93" value="" style="endArrow=none;html=1;rounded=0;exitX=0.975;exitY=0.565;exitDx=0;exitDy=0;exitPerimeter=0;entryX=-0.026;entryY=0.597;entryDx=0;entryDy=0;entryPerimeter=0;" parent="1" source="BF22gdORD3tfmSY-qZLE-74" target="BF22gdORD3tfmSY-qZLE-31" edge="1">
          <mxGeometry width="50" height="50" relative="1" as="geometry">
            <mxPoint x="-800" y="460" as="sourcePoint" />
            <mxPoint x="-730" y="460" as="targetPoint" />
          </mxGeometry>
        </mxCell>
        <mxCell id="BF22gdORD3tfmSY-qZLE-95" value="DATA_INICIAL" style="ellipse;whiteSpace=wrap;html=1;" parent="1" vertex="1">
          <mxGeometry x="-650" y="370" width="110" height="30" as="geometry" />
        </mxCell>
        <mxCell id="BF22gdORD3tfmSY-qZLE-96" value="" style="endArrow=none;html=1;rounded=0;fontFamily=Helvetica;fontSize=12;fontColor=default;entryX=0.674;entryY=-0.052;entryDx=0;entryDy=0;exitX=0.5;exitY=1;exitDx=0;exitDy=0;entryPerimeter=0;" parent="1" source="BF22gdORD3tfmSY-qZLE-95" target="BF22gdORD3tfmSY-qZLE-31" edge="1">
          <mxGeometry width="50" height="50" relative="1" as="geometry">
            <mxPoint x="-270" y="295" as="sourcePoint" />
            <mxPoint x="-580" y="405" as="targetPoint" />
          </mxGeometry>
        </mxCell>
        <mxCell id="BF22gdORD3tfmSY-qZLE-99" value="&lt;font size=&quot;1&quot;&gt;VALOR_ATUAL&lt;/font&gt;" style="ellipse;whiteSpace=wrap;html=1;" parent="1" vertex="1">
          <mxGeometry x="-360" y="230" width="100" height="30" as="geometry" />
        </mxCell>
        <mxCell id="BF22gdORD3tfmSY-qZLE-100" value="" style="endArrow=none;html=1;rounded=0;fontFamily=Helvetica;fontSize=12;fontColor=default;entryX=0;entryY=0.5;entryDx=0;entryDy=0;exitX=1;exitY=0.75;exitDx=0;exitDy=0;" parent="1" source="BF22gdORD3tfmSY-qZLE-54" target="BF22gdORD3tfmSY-qZLE-99" edge="1">
          <mxGeometry width="50" height="50" relative="1" as="geometry">
            <mxPoint x="-200" y="280" as="sourcePoint" />
            <mxPoint x="-175" y="245" as="targetPoint" />
          </mxGeometry>
        </mxCell>
        <mxCell id="BF22gdORD3tfmSY-qZLE-101" value="EH_DO_TIPO" style="shape=rhombus;perimeter=rhombusPerimeter;whiteSpace=wrap;html=1;align=center;" parent="1" vertex="1">
          <mxGeometry x="-670" y="195" width="120" height="60" as="geometry" />
        </mxCell>
        <mxCell id="BF22gdORD3tfmSY-qZLE-102" value="" style="endArrow=none;html=1;rounded=0;entryX=0;entryY=0.25;entryDx=0;entryDy=0;exitX=0.918;exitY=0.418;exitDx=0;exitDy=0;exitPerimeter=0;" parent="1" source="BF22gdORD3tfmSY-qZLE-101" target="BF22gdORD3tfmSY-qZLE-54" edge="1">
          <mxGeometry width="50" height="50" relative="1" as="geometry">
            <mxPoint x="-807" y="453" as="sourcePoint" />
            <mxPoint x="-723" y="453" as="targetPoint" />
          </mxGeometry>
        </mxCell>
        <mxCell id="BF22gdORD3tfmSY-qZLE-103" value="1" style="edgeLabel;html=1;align=center;verticalAlign=middle;resizable=0;points=[];" parent="BF22gdORD3tfmSY-qZLE-102" vertex="1" connectable="0">
          <mxGeometry x="-0.5631" relative="1" as="geometry">
            <mxPoint x="-17" y="-10" as="offset" />
          </mxGeometry>
        </mxCell>
        <mxCell id="BF22gdORD3tfmSY-qZLE-105" value="" style="endArrow=none;html=1;rounded=0;exitX=0.938;exitY=0.593;exitDx=0;exitDy=0;exitPerimeter=0;entryX=0;entryY=0.5;entryDx=0;entryDy=0;" parent="1" source="BF22gdORD3tfmSY-qZLE-101" target="BF22gdORD3tfmSY-qZLE-54" edge="1">
          <mxGeometry width="50" height="50" relative="1" as="geometry">
            <mxPoint x="-803" y="464" as="sourcePoint" />
            <mxPoint x="-723" y="464" as="targetPoint" />
          </mxGeometry>
        </mxCell>
        <mxCell id="BF22gdORD3tfmSY-qZLE-106" value="" style="endArrow=none;html=1;rounded=0;exitX=0;exitY=0.5;exitDx=0;exitDy=0;entryX=1;entryY=0.5;entryDx=0;entryDy=0;" parent="1" source="BF22gdORD3tfmSY-qZLE-101" target="BF22gdORD3tfmSY-qZLE-108" edge="1">
          <mxGeometry width="50" height="50" relative="1" as="geometry">
            <mxPoint x="-410" y="236" as="sourcePoint" />
            <mxPoint x="-630" y="220" as="targetPoint" />
          </mxGeometry>
        </mxCell>
        <mxCell id="BF22gdORD3tfmSY-qZLE-107" value="N" style="edgeLabel;html=1;align=center;verticalAlign=middle;resizable=0;points=[];" parent="BF22gdORD3tfmSY-qZLE-106" vertex="1" connectable="0">
          <mxGeometry x="-0.5896" y="-2" relative="1" as="geometry">
            <mxPoint x="19" y="-13" as="offset" />
          </mxGeometry>
        </mxCell>
        <mxCell id="BF22gdORD3tfmSY-qZLE-108" value="TIPOS_INVESTIMENTOS" style="whiteSpace=wrap;html=1;align=center;" parent="1" vertex="1">
          <mxGeometry x="-900" y="200" width="150" height="40" as="geometry" />
        </mxCell>
        <mxCell id="BF22gdORD3tfmSY-qZLE-109" value="" style="endArrow=none;html=1;rounded=0;entryX=0.5;entryY=0;entryDx=0;entryDy=0;exitX=0.5;exitY=1;exitDx=0;exitDy=0;" parent="1" source="BF22gdORD3tfmSY-qZLE-110" target="BF22gdORD3tfmSY-qZLE-108" edge="1">
          <mxGeometry width="50" height="50" relative="1" as="geometry">
            <mxPoint x="-680" y="160" as="sourcePoint" />
            <mxPoint x="-440" y="310" as="targetPoint" />
          </mxGeometry>
        </mxCell>
        <mxCell id="BF22gdORD3tfmSY-qZLE-110" value="&lt;u&gt;ID_INVESTIMENTO&lt;/u&gt;" style="ellipse;whiteSpace=wrap;html=1;" parent="1" vertex="1">
          <mxGeometry x="-890" y="125" width="120" height="30" as="geometry" />
        </mxCell>
        <mxCell id="BF22gdORD3tfmSY-qZLE-111" value="" style="endArrow=none;html=1;rounded=0;entryX=0;entryY=0.5;entryDx=0;entryDy=0;exitX=0.5;exitY=1;exitDx=0;exitDy=0;" parent="1" source="BF22gdORD3tfmSY-qZLE-112" target="BF22gdORD3tfmSY-qZLE-108" edge="1">
          <mxGeometry width="50" height="50" relative="1" as="geometry">
            <mxPoint x="-850" y="170" as="sourcePoint" />
            <mxPoint x="-830" y="210" as="targetPoint" />
          </mxGeometry>
        </mxCell>
        <mxCell id="BF22gdORD3tfmSY-qZLE-112" value="PRAZO" style="ellipse;whiteSpace=wrap;html=1;" parent="1" vertex="1">
          <mxGeometry x="-1020" y="130" width="120" height="30" as="geometry" />
        </mxCell>
        <mxCell id="BF22gdORD3tfmSY-qZLE-115" value="" style="endArrow=none;html=1;rounded=0;entryX=0;entryY=0.5;entryDx=0;entryDy=0;exitX=1;exitY=0.5;exitDx=0;exitDy=0;" parent="1" source="BF22gdORD3tfmSY-qZLE-116" target="BF22gdORD3tfmSY-qZLE-108" edge="1">
          <mxGeometry width="50" height="50" relative="1" as="geometry">
            <mxPoint x="-890" y="215" as="sourcePoint" />
            <mxPoint x="-775" y="265" as="targetPoint" />
          </mxGeometry>
        </mxCell>
        <mxCell id="BF22gdORD3tfmSY-qZLE-116" value="TAXA" style="ellipse;whiteSpace=wrap;html=1;" parent="1" vertex="1">
          <mxGeometry x="-1060" y="205" width="120" height="30" as="geometry" />
        </mxCell>
        <mxCell id="BF22gdORD3tfmSY-qZLE-117" value="" style="endArrow=none;html=1;rounded=0;entryX=0.25;entryY=1;entryDx=0;entryDy=0;exitX=1;exitY=0.5;exitDx=0;exitDy=0;" parent="1" source="BF22gdORD3tfmSY-qZLE-118" target="BF22gdORD3tfmSY-qZLE-108" edge="1">
          <mxGeometry width="50" height="50" relative="1" as="geometry">
            <mxPoint x="-865" y="265" as="sourcePoint" />
            <mxPoint x="-710" y="270" as="targetPoint" />
          </mxGeometry>
        </mxCell>
        <mxCell id="BF22gdORD3tfmSY-qZLE-118" value="EMPRESA_GESTORA" style="ellipse;whiteSpace=wrap;html=1;" parent="1" vertex="1">
          <mxGeometry x="-1050" y="250" width="135" height="30" as="geometry" />
        </mxCell>
        <mxCell id="BF22gdORD3tfmSY-qZLE-119" value="&lt;font size=&quot;1&quot;&gt;RETORNO&lt;/font&gt;" style="ellipse;whiteSpace=wrap;html=1;" parent="1" vertex="1">
          <mxGeometry x="-890" y="302.5" width="100" height="35" as="geometry" />
        </mxCell>
        <mxCell id="BF22gdORD3tfmSY-qZLE-120" value="" style="endArrow=none;html=1;rounded=0;fontFamily=Helvetica;fontSize=12;fontColor=default;entryX=0.5;entryY=0;entryDx=0;entryDy=0;exitX=0.345;exitY=1.037;exitDx=0;exitDy=0;exitPerimeter=0;" parent="1" source="BF22gdORD3tfmSY-qZLE-108" target="BF22gdORD3tfmSY-qZLE-119" edge="1">
          <mxGeometry width="50" height="50" relative="1" as="geometry">
            <mxPoint x="-650" y="330" as="sourcePoint" />
            <mxPoint x="-645" y="290" as="targetPoint" />
          </mxGeometry>
        </mxCell>
        <mxCell id="BF22gdORD3tfmSY-qZLE-121" value="&lt;font size=&quot;1&quot;&gt;NOME&lt;/font&gt;" style="ellipse;whiteSpace=wrap;html=1;" parent="1" vertex="1">
          <mxGeometry x="-810" y="265" width="100" height="35" as="geometry" />
        </mxCell>
        <mxCell id="BF22gdORD3tfmSY-qZLE-122" value="" style="endArrow=none;html=1;rounded=0;fontFamily=Helvetica;fontSize=12;fontColor=default;entryX=0.5;entryY=0;entryDx=0;entryDy=0;exitX=0.5;exitY=1;exitDx=0;exitDy=0;" parent="1" source="BF22gdORD3tfmSY-qZLE-108" target="BF22gdORD3tfmSY-qZLE-121" edge="1">
          <mxGeometry width="50" height="50" relative="1" as="geometry">
            <mxPoint x="-573" y="250" as="sourcePoint" />
            <mxPoint x="-535" y="299" as="targetPoint" />
          </mxGeometry>
        </mxCell>
        <mxCell id="BF22gdORD3tfmSY-qZLE-123" value="Conta Corrente" style="whiteSpace=wrap;html=1;align=center;" parent="1" vertex="1">
          <mxGeometry x="795" y="125" width="100" height="40" as="geometry" />
        </mxCell>
        <mxCell id="BF22gdORD3tfmSY-qZLE-124" value="CARTAO_DE_CREDITO" style="shape=ext;margin=3;double=1;whiteSpace=wrap;html=1;align=center;" parent="1" vertex="1">
          <mxGeometry x="1180" y="140" width="150" height="40" as="geometry" />
        </mxCell>
        <mxCell id="BF22gdORD3tfmSY-qZLE-125" value="" style="endArrow=none;html=1;rounded=0;entryX=0.331;entryY=1.015;entryDx=0;entryDy=0;entryPerimeter=0;" parent="1" source="BF22gdORD3tfmSY-qZLE-126" target="BF22gdORD3tfmSY-qZLE-35" edge="1">
          <mxGeometry width="50" height="50" relative="1" as="geometry">
            <mxPoint x="-150" y="820" as="sourcePoint" />
            <mxPoint x="440" y="470" as="targetPoint" />
          </mxGeometry>
        </mxCell>
        <mxCell id="BF22gdORD3tfmSY-qZLE-126" value="DATA_EMISSAO" style="ellipse;whiteSpace=wrap;html=1;" parent="1" vertex="1">
          <mxGeometry x="-200" y="840" width="120" height="30" as="geometry" />
        </mxCell>
        <mxCell id="BF22gdORD3tfmSY-qZLE-135" value="NUM_CARTAO_D" style="ellipse;whiteSpace=wrap;html=1;" parent="1" vertex="1">
          <mxGeometry x="1270" y="200" width="110" height="30" as="geometry" />
        </mxCell>
        <mxCell id="BF22gdORD3tfmSY-qZLE-136" value="DATA_VALIDADE" style="ellipse;whiteSpace=wrap;html=1;" parent="1" vertex="1">
          <mxGeometry x="1230" y="50" width="120" height="30" as="geometry" />
        </mxCell>
        <mxCell id="BF22gdORD3tfmSY-qZLE-137" value="NOME_NO_CARTAO" style="ellipse;whiteSpace=wrap;html=1;" parent="1" vertex="1">
          <mxGeometry x="1310" y="80" width="130" height="30" as="geometry" />
        </mxCell>
        <mxCell id="BF22gdORD3tfmSY-qZLE-139" value="STATUS" style="ellipse;whiteSpace=wrap;html=1;" parent="1" vertex="1">
          <mxGeometry x="1040" y="189.99999999999997" width="90" height="30" as="geometry" />
        </mxCell>
        <mxCell id="BF22gdORD3tfmSY-qZLE-141" value="DATA_EMISSAO" style="ellipse;whiteSpace=wrap;html=1;" parent="1" vertex="1">
          <mxGeometry x="1125" y="210" width="120" height="30" as="geometry" />
        </mxCell>
        <mxCell id="BF22gdORD3tfmSY-qZLE-142" value="" style="endArrow=none;html=1;rounded=0;entryX=1;entryY=0;entryDx=0;entryDy=0;exitX=0.5;exitY=1;exitDx=0;exitDy=0;" parent="1" source="BF22gdORD3tfmSY-qZLE-136" target="BF22gdORD3tfmSY-qZLE-124" edge="1">
          <mxGeometry width="50" height="50" relative="1" as="geometry">
            <mxPoint x="1290" y="240" as="sourcePoint" />
            <mxPoint x="1340" y="190" as="targetPoint" />
          </mxGeometry>
        </mxCell>
        <mxCell id="BF22gdORD3tfmSY-qZLE-143" value="" style="endArrow=none;html=1;rounded=0;entryX=0.436;entryY=1.042;entryDx=0;entryDy=0;entryPerimeter=0;exitX=1;exitY=0;exitDx=0;exitDy=0;" parent="1" source="BF22gdORD3tfmSY-qZLE-124" target="BF22gdORD3tfmSY-qZLE-137" edge="1">
          <mxGeometry width="50" height="50" relative="1" as="geometry">
            <mxPoint x="1330" y="150" as="sourcePoint" />
            <mxPoint x="1340" y="190" as="targetPoint" />
          </mxGeometry>
        </mxCell>
        <mxCell id="BF22gdORD3tfmSY-qZLE-144" value="" style="endArrow=none;html=1;rounded=0;fontFamily=Helvetica;fontSize=12;fontColor=default;entryX=0.5;entryY=0;entryDx=0;entryDy=0;exitX=0;exitY=1;exitDx=0;exitDy=0;" parent="1" source="BF22gdORD3tfmSY-qZLE-124" target="BF22gdORD3tfmSY-qZLE-139" edge="1">
          <mxGeometry width="50" height="50" relative="1" as="geometry">
            <mxPoint x="1190" y="150" as="sourcePoint" />
            <mxPoint x="1135" y="120" as="targetPoint" />
          </mxGeometry>
        </mxCell>
        <mxCell id="BF22gdORD3tfmSY-qZLE-148" value="" style="endArrow=none;html=1;rounded=0;fontFamily=Helvetica;fontSize=12;fontColor=default;entryX=0.5;entryY=0;entryDx=0;entryDy=0;exitX=0.565;exitY=1.058;exitDx=0;exitDy=0;exitPerimeter=0;" parent="1" source="BF22gdORD3tfmSY-qZLE-124" target="BF22gdORD3tfmSY-qZLE-141" edge="1">
          <mxGeometry width="50" height="50" relative="1" as="geometry">
            <mxPoint x="1251" y="191" as="sourcePoint" />
            <mxPoint x="1251" y="250" as="targetPoint" />
            <Array as="points" />
          </mxGeometry>
        </mxCell>
        <mxCell id="BF22gdORD3tfmSY-qZLE-149" value="" style="endArrow=none;html=1;rounded=0;fontFamily=Helvetica;fontSize=12;fontColor=default;entryX=0.5;entryY=0;entryDx=0;entryDy=0;exitX=0.75;exitY=1;exitDx=0;exitDy=0;" parent="1" source="BF22gdORD3tfmSY-qZLE-124" target="BF22gdORD3tfmSY-qZLE-135" edge="1">
          <mxGeometry width="50" height="50" relative="1" as="geometry">
            <mxPoint x="1269" y="192" as="sourcePoint" />
            <mxPoint x="1280" y="240" as="targetPoint" />
            <Array as="points" />
          </mxGeometry>
        </mxCell>
        <mxCell id="BF22gdORD3tfmSY-qZLE-150" value="LIMITE" style="ellipse;whiteSpace=wrap;html=1;" parent="1" vertex="1">
          <mxGeometry x="1400" y="110" width="110" height="30" as="geometry" />
        </mxCell>
        <mxCell id="BF22gdORD3tfmSY-qZLE-151" value="" style="endArrow=none;html=1;rounded=0;fontFamily=Helvetica;fontSize=12;fontColor=default;entryX=0;entryY=0.5;entryDx=0;entryDy=0;exitX=1;exitY=0;exitDx=0;exitDy=0;" parent="1" source="BF22gdORD3tfmSY-qZLE-124" target="BF22gdORD3tfmSY-qZLE-150" edge="1">
          <mxGeometry width="50" height="50" relative="1" as="geometry">
            <mxPoint x="1345" y="150" as="sourcePoint" />
            <mxPoint x="1340" y="210" as="targetPoint" />
            <Array as="points" />
          </mxGeometry>
        </mxCell>
        <mxCell id="BF22gdORD3tfmSY-qZLE-152" value="" style="endArrow=none;html=1;rounded=0;exitX=1;exitY=0.5;exitDx=0;exitDy=0;entryX=0.5;entryY=0;entryDx=0;entryDy=0;" parent="1" source="BF22gdORD3tfmSY-qZLE-124" target="BF22gdORD3tfmSY-qZLE-154" edge="1">
          <mxGeometry width="50" height="50" relative="1" as="geometry">
            <mxPoint x="1400" y="290" as="sourcePoint" />
            <mxPoint x="1480" y="318.9999999999999" as="targetPoint" />
            <Array as="points">
              <mxPoint x="1480" y="160" />
            </Array>
          </mxGeometry>
        </mxCell>
        <mxCell id="BF22gdORD3tfmSY-qZLE-156" value="1" style="edgeLabel;html=1;align=center;verticalAlign=middle;resizable=0;points=[];" parent="BF22gdORD3tfmSY-qZLE-152" vertex="1" connectable="0">
          <mxGeometry x="0.8934" y="1" relative="1" as="geometry">
            <mxPoint x="9" y="8" as="offset" />
          </mxGeometry>
        </mxCell>
        <mxCell id="BF22gdORD3tfmSY-qZLE-154" value="EH_DO_TIPO" style="rhombus;whiteSpace=wrap;html=1;" parent="1" vertex="1">
          <mxGeometry x="1430" y="250" width="100" height="65" as="geometry" />
        </mxCell>
        <mxCell id="BF22gdORD3tfmSY-qZLE-157" value="TIPOS_CARTOES_C" style="whiteSpace=wrap;html=1;align=center;" parent="1" vertex="1">
          <mxGeometry x="1405" y="360" width="150" height="40" as="geometry" />
        </mxCell>
        <mxCell id="BF22gdORD3tfmSY-qZLE-158" value="" style="endArrow=none;html=1;rounded=0;entryX=0.5;entryY=1;entryDx=0;entryDy=0;" parent="1" source="BF22gdORD3tfmSY-qZLE-157" target="BF22gdORD3tfmSY-qZLE-154" edge="1">
          <mxGeometry width="50" height="50" relative="1" as="geometry">
            <mxPoint x="1320" y="260" as="sourcePoint" />
            <mxPoint x="1370" y="210" as="targetPoint" />
          </mxGeometry>
        </mxCell>
        <mxCell id="BF22gdORD3tfmSY-qZLE-159" value="N" style="edgeLabel;html=1;align=center;verticalAlign=middle;resizable=0;points=[];" parent="BF22gdORD3tfmSY-qZLE-158" vertex="1" connectable="0">
          <mxGeometry x="0.5564" relative="1" as="geometry">
            <mxPoint x="10" y="-6" as="offset" />
          </mxGeometry>
        </mxCell>
        <mxCell id="BF22gdORD3tfmSY-qZLE-160" value="TIPO_BAND" style="ellipse;whiteSpace=wrap;html=1;" parent="1" vertex="1">
          <mxGeometry x="1330" y="420" width="90" height="30" as="geometry" />
        </mxCell>
        <mxCell id="BF22gdORD3tfmSY-qZLE-161" value="" style="endArrow=none;html=1;rounded=0;fontFamily=Helvetica;fontSize=12;fontColor=default;entryX=0.5;entryY=0;entryDx=0;entryDy=0;exitX=0;exitY=1;exitDx=0;exitDy=0;" parent="1" source="BF22gdORD3tfmSY-qZLE-157" target="BF22gdORD3tfmSY-qZLE-160" edge="1">
          <mxGeometry width="50" height="50" relative="1" as="geometry">
            <mxPoint x="1391" y="412" as="sourcePoint" />
            <mxPoint x="1300" y="440" as="targetPoint" />
          </mxGeometry>
        </mxCell>
        <mxCell id="BF22gdORD3tfmSY-qZLE-162" value="&lt;u&gt;TIPO_CARTAO&lt;/u&gt;" style="ellipse;whiteSpace=wrap;html=1;" parent="1" vertex="1">
          <mxGeometry x="1370" y="460" width="100" height="30" as="geometry" />
        </mxCell>
        <mxCell id="BF22gdORD3tfmSY-qZLE-163" value="" style="endArrow=none;html=1;rounded=0;fontFamily=Helvetica;fontSize=12;fontColor=default;entryX=0.5;entryY=0;entryDx=0;entryDy=0;exitX=0.25;exitY=1;exitDx=0;exitDy=0;" parent="1" source="BF22gdORD3tfmSY-qZLE-157" target="BF22gdORD3tfmSY-qZLE-162" edge="1">
          <mxGeometry width="50" height="50" relative="1" as="geometry">
            <mxPoint x="1427.249999999999" y="410.00000000000006" as="sourcePoint" />
            <mxPoint x="1380" y="471.66" as="targetPoint" />
          </mxGeometry>
        </mxCell>
        <mxCell id="BF22gdORD3tfmSY-qZLE-164" value="LIMITE_INICIAL" style="ellipse;whiteSpace=wrap;html=1;" parent="1" vertex="1">
          <mxGeometry x="1465" y="440" width="105" height="30" as="geometry" />
        </mxCell>
        <mxCell id="BF22gdORD3tfmSY-qZLE-165" value="" style="endArrow=none;html=1;rounded=0;fontFamily=Helvetica;fontSize=12;fontColor=default;entryX=0.5;entryY=0;entryDx=0;entryDy=0;exitX=0.37;exitY=1.012;exitDx=0;exitDy=0;exitPerimeter=0;" parent="1" source="BF22gdORD3tfmSY-qZLE-157" target="BF22gdORD3tfmSY-qZLE-164" edge="1">
          <mxGeometry width="50" height="50" relative="1" as="geometry">
            <mxPoint x="1533" y="410" as="sourcePoint" />
            <mxPoint x="1470" y="481.66" as="targetPoint" />
          </mxGeometry>
        </mxCell>
        <mxCell id="BF22gdORD3tfmSY-qZLE-166" value="TAXA_ANUAL" style="ellipse;whiteSpace=wrap;html=1;" parent="1" vertex="1">
          <mxGeometry x="1270" y="380" width="100" height="30" as="geometry" />
        </mxCell>
        <mxCell id="BF22gdORD3tfmSY-qZLE-167" value="" style="endArrow=none;html=1;rounded=0;fontFamily=Helvetica;fontSize=12;fontColor=default;entryX=1;entryY=0.5;entryDx=0;entryDy=0;exitX=0;exitY=0.5;exitDx=0;exitDy=0;" parent="1" source="BF22gdORD3tfmSY-qZLE-157" target="BF22gdORD3tfmSY-qZLE-166" edge="1">
          <mxGeometry width="50" height="50" relative="1" as="geometry">
            <mxPoint x="1355" y="340" as="sourcePoint" />
            <mxPoint x="1250" y="380" as="targetPoint" />
          </mxGeometry>
        </mxCell>
        <mxCell id="BF22gdORD3tfmSY-qZLE-169" value="" style="endArrow=none;html=1;rounded=0;entryX=0.403;entryY=0.07;entryDx=0;entryDy=0;entryPerimeter=0;exitX=1.002;exitY=0.616;exitDx=0;exitDy=0;exitPerimeter=0;" parent="1" source="BF22gdORD3tfmSY-qZLE-124" target="BF22gdORD3tfmSY-qZLE-154" edge="1">
          <mxGeometry width="50" height="50" relative="1" as="geometry">
            <mxPoint x="1330" y="165" as="sourcePoint" />
            <mxPoint x="1470" y="255" as="targetPoint" />
            <Array as="points">
              <mxPoint x="1470" y="165" />
            </Array>
          </mxGeometry>
        </mxCell>
        <mxCell id="BF22gdORD3tfmSY-qZLE-172" value="" style="endArrow=none;html=1;rounded=0;fontFamily=Helvetica;fontSize=12;fontColor=default;exitX=-0.02;exitY=0.361;exitDx=0;exitDy=0;entryX=0.935;entryY=0.563;entryDx=0;entryDy=0;entryPerimeter=0;exitPerimeter=0;" parent="1" source="BF22gdORD3tfmSY-qZLE-124" target="y3Y6H-X3qQzjZ2dYzm8i-95" edge="1">
          <mxGeometry width="50" height="50" relative="1" as="geometry">
            <mxPoint x="1190" y="160" as="sourcePoint" />
            <mxPoint x="1120" y="160" as="targetPoint" />
          </mxGeometry>
        </mxCell>
        <mxCell id="BF22gdORD3tfmSY-qZLE-174" value="" style="endArrow=none;html=1;rounded=0;fontFamily=Helvetica;fontSize=12;fontColor=default;exitX=0.017;exitY=0.575;exitDx=0;exitDy=0;entryX=1.005;entryY=0.618;entryDx=0;entryDy=0;entryPerimeter=0;exitPerimeter=0;" parent="1" source="y3Y6H-X3qQzjZ2dYzm8i-105" target="BF22gdORD3tfmSY-qZLE-35" edge="1">
          <mxGeometry width="50" height="50" relative="1" as="geometry">
            <mxPoint x="25" y="699.29" as="sourcePoint" />
            <mxPoint x="-50" y="699.29" as="targetPoint" />
          </mxGeometry>
        </mxCell>
        <mxCell id="CzmuyPAignQkNYChFBfo-2" value="PESSOA" style="whiteSpace=wrap;html=1;align=center;" vertex="1" parent="1">
          <mxGeometry x="-40" y="-130" width="130" height="40" as="geometry" />
        </mxCell>
        <mxCell id="CzmuyPAignQkNYChFBfo-6" value="FUNCIONARIO" style="whiteSpace=wrap;html=1;align=center;" vertex="1" parent="1">
          <mxGeometry x="-360" y="-55" width="130" height="40" as="geometry" />
        </mxCell>
        <mxCell id="CzmuyPAignQkNYChFBfo-7" style="edgeStyle=orthogonalEdgeStyle;rounded=0;orthogonalLoop=1;jettySize=auto;html=1;exitX=0.5;exitY=1;exitDx=0;exitDy=0;" edge="1" parent="1" source="y3Y6H-X3qQzjZ2dYzm8i-11" target="y3Y6H-X3qQzjZ2dYzm8i-11">
          <mxGeometry relative="1" as="geometry" />
        </mxCell>
        <mxCell id="CzmuyPAignQkNYChFBfo-8" value="O" style="strokeWidth=2;html=1;shape=mxgraph.flowchart.start_2;whiteSpace=wrap;" vertex="1" parent="1">
          <mxGeometry x="10" y="-50" width="30" height="30" as="geometry" />
        </mxCell>
        <mxCell id="CzmuyPAignQkNYChFBfo-11" value="" style="endArrow=none;html=1;rounded=0;exitX=0.5;exitY=0;exitDx=0;exitDy=0;exitPerimeter=0;entryX=0.5;entryY=1;entryDx=0;entryDy=0;" edge="1" parent="1" source="CzmuyPAignQkNYChFBfo-8" target="CzmuyPAignQkNYChFBfo-2">
          <mxGeometry relative="1" as="geometry">
            <mxPoint x="40" y="-10" as="sourcePoint" />
            <mxPoint x="20" y="-80" as="targetPoint" />
          </mxGeometry>
        </mxCell>
        <mxCell id="CzmuyPAignQkNYChFBfo-14" value="" style="endArrow=none;html=1;rounded=0;exitX=1;exitY=0.5;exitDx=0;exitDy=0;exitPerimeter=0;entryX=0.424;entryY=0.03;entryDx=0;entryDy=0;entryPerimeter=0;" edge="1" parent="1" source="CzmuyPAignQkNYChFBfo-20" target="y3Y6H-X3qQzjZ2dYzm8i-1">
          <mxGeometry relative="1" as="geometry">
            <mxPoint x="-10" y="120" as="sourcePoint" />
            <mxPoint x="150" y="120" as="targetPoint" />
          </mxGeometry>
        </mxCell>
        <mxCell id="CzmuyPAignQkNYChFBfo-15" value="" style="endArrow=none;html=1;rounded=0;entryX=1;entryY=0.5;entryDx=0;entryDy=0;exitX=1.043;exitY=0.45;exitDx=0;exitDy=0;exitPerimeter=0;" edge="1" parent="1" source="CzmuyPAignQkNYChFBfo-21" target="CzmuyPAignQkNYChFBfo-6">
          <mxGeometry relative="1" as="geometry">
            <mxPoint x="-140" as="sourcePoint" />
            <mxPoint x="235" y="136" as="targetPoint" />
          </mxGeometry>
        </mxCell>
        <mxCell id="CzmuyPAignQkNYChFBfo-20" value="" style="shape=requiredInterface;html=1;verticalLabelPosition=bottom;sketch=0;rotation=45;" vertex="1" parent="1">
          <mxGeometry x="150" y="50" width="20" height="40" as="geometry" />
        </mxCell>
        <mxCell id="CzmuyPAignQkNYChFBfo-24" value="" style="endArrow=none;html=1;rounded=0;exitX=-0.048;exitY=0.736;exitDx=0;exitDy=0;exitPerimeter=0;entryX=1.04;entryY=0.452;entryDx=0;entryDy=0;entryPerimeter=0;" edge="1" parent="1" source="CzmuyPAignQkNYChFBfo-8" target="CzmuyPAignQkNYChFBfo-21">
          <mxGeometry relative="1" as="geometry">
            <mxPoint x="9" y="52" as="sourcePoint" />
            <mxPoint x="-155" y="120" as="targetPoint" />
          </mxGeometry>
        </mxCell>
        <mxCell id="CzmuyPAignQkNYChFBfo-21" value="" style="shape=requiredInterface;html=1;verticalLabelPosition=bottom;sketch=0;rotation=-180;" vertex="1" parent="1">
          <mxGeometry x="-130" y="-60" width="25" height="40" as="geometry" />
        </mxCell>
        <mxCell id="CzmuyPAignQkNYChFBfo-26" value="" style="endArrow=none;html=1;rounded=0;exitX=0.946;exitY=0.874;exitDx=0;exitDy=0;exitPerimeter=0;entryX=1;entryY=0.5;entryDx=0;entryDy=0;entryPerimeter=0;" edge="1" parent="1" source="CzmuyPAignQkNYChFBfo-8" target="CzmuyPAignQkNYChFBfo-20">
          <mxGeometry relative="1" as="geometry">
            <mxPoint x="50" y="-9" as="sourcePoint" />
            <mxPoint x="104" y="40" as="targetPoint" />
          </mxGeometry>
        </mxCell>
        <mxCell id="CzmuyPAignQkNYChFBfo-27" value="d" style="strokeWidth=2;html=1;shape=mxgraph.flowchart.start_2;whiteSpace=wrap;" vertex="1" parent="1">
          <mxGeometry x="-315" y="30" width="30" height="30" as="geometry" />
        </mxCell>
        <mxCell id="CzmuyPAignQkNYChFBfo-29" value="" style="shape=link;html=1;rounded=0;exitX=0.461;exitY=1.048;exitDx=0;exitDy=0;exitPerimeter=0;" edge="1" parent="1" source="CzmuyPAignQkNYChFBfo-6" target="CzmuyPAignQkNYChFBfo-27">
          <mxGeometry relative="1" as="geometry">
            <mxPoint x="-80" y="-10" as="sourcePoint" />
            <mxPoint x="80" y="-10" as="targetPoint" />
          </mxGeometry>
        </mxCell>
        <mxCell id="CzmuyPAignQkNYChFBfo-31" value="&lt;font size=&quot;1&quot;&gt;DATA_INICIO&lt;/font&gt;" style="ellipse;whiteSpace=wrap;html=1;" vertex="1" parent="1">
          <mxGeometry x="-525" y="270" width="70" height="20" as="geometry" />
        </mxCell>
        <mxCell id="CzmuyPAignQkNYChFBfo-32" value="" style="endArrow=none;html=1;rounded=0;fontFamily=Helvetica;fontSize=12;fontColor=default;entryX=0.535;entryY=-0.003;entryDx=0;entryDy=0;exitX=0.196;exitY=1.026;exitDx=0;exitDy=0;exitPerimeter=0;entryPerimeter=0;" edge="1" parent="1" target="CzmuyPAignQkNYChFBfo-31" source="BF22gdORD3tfmSY-qZLE-54">
          <mxGeometry width="50" height="50" relative="1" as="geometry">
            <mxPoint x="-510" y="290" as="sourcePoint" />
            <mxPoint x="-615" y="370" as="targetPoint" />
          </mxGeometry>
        </mxCell>
        <mxCell id="CzmuyPAignQkNYChFBfo-33" value="&lt;font size=&quot;1&quot;&gt;VALOR_INICIAL&lt;/font&gt;" style="ellipse;whiteSpace=wrap;html=1;" vertex="1" parent="1">
          <mxGeometry x="-405" y="270" width="100" height="30" as="geometry" />
        </mxCell>
        <mxCell id="CzmuyPAignQkNYChFBfo-34" value="" style="endArrow=none;html=1;rounded=0;fontFamily=Helvetica;fontSize=12;fontColor=default;entryX=0.5;entryY=0;entryDx=0;entryDy=0;exitX=0.75;exitY=1;exitDx=0;exitDy=0;" edge="1" parent="1" target="CzmuyPAignQkNYChFBfo-33" source="BF22gdORD3tfmSY-qZLE-54">
          <mxGeometry width="50" height="50" relative="1" as="geometry">
            <mxPoint x="-396.8" y="260" as="sourcePoint" />
            <mxPoint x="-175" y="298.68" as="targetPoint" />
          </mxGeometry>
        </mxCell>
        <mxCell id="CzmuyPAignQkNYChFBfo-36" value="" style="shape=requiredInterface;html=1;verticalLabelPosition=bottom;sketch=0;rotation=30;" vertex="1" parent="1">
          <mxGeometry x="-210" y="100" width="20" height="40" as="geometry" />
        </mxCell>
        <mxCell id="CzmuyPAignQkNYChFBfo-37" value="" style="endArrow=none;html=1;rounded=0;exitX=1.054;exitY=0.758;exitDx=0;exitDy=0;exitPerimeter=0;entryX=1;entryY=0.5;entryDx=0;entryDy=0;entryPerimeter=0;" edge="1" parent="1" target="CzmuyPAignQkNYChFBfo-36" source="CzmuyPAignQkNYChFBfo-27">
          <mxGeometry relative="1" as="geometry">
            <mxPoint x="-170" y="85" as="sourcePoint" />
            <mxPoint x="-104" y="149" as="targetPoint" />
          </mxGeometry>
        </mxCell>
        <mxCell id="CzmuyPAignQkNYChFBfo-38" value="GESTOR_INVESTIMENTO" style="whiteSpace=wrap;html=1;align=center;" vertex="1" parent="1">
          <mxGeometry x="-220" y="155" width="150" height="30" as="geometry" />
        </mxCell>
        <mxCell id="CzmuyPAignQkNYChFBfo-39" value="" style="endArrow=none;html=1;rounded=0;entryX=0.5;entryY=0;entryDx=0;entryDy=0;exitX=1;exitY=0.5;exitDx=0;exitDy=0;exitPerimeter=0;" edge="1" parent="1" source="CzmuyPAignQkNYChFBfo-36" target="CzmuyPAignQkNYChFBfo-38">
          <mxGeometry relative="1" as="geometry">
            <mxPoint x="-280" y="110" as="sourcePoint" />
            <mxPoint x="-120" y="110" as="targetPoint" />
          </mxGeometry>
        </mxCell>
        <mxCell id="CzmuyPAignQkNYChFBfo-44" value="" style="shape=requiredInterface;html=1;verticalLabelPosition=bottom;sketch=0;rotation=90;" vertex="1" parent="1">
          <mxGeometry x="-310" y="79.99999999999999" width="20" height="40" as="geometry" />
        </mxCell>
        <mxCell id="CzmuyPAignQkNYChFBfo-45" value="" style="endArrow=none;html=1;rounded=0;exitX=0.5;exitY=1;exitDx=0;exitDy=0;exitPerimeter=0;entryX=1;entryY=0.5;entryDx=0;entryDy=0;entryPerimeter=0;" edge="1" parent="1" target="CzmuyPAignQkNYChFBfo-44" source="CzmuyPAignQkNYChFBfo-27">
          <mxGeometry relative="1" as="geometry">
            <mxPoint x="-271.9600000000003" y="106.37000000000002" as="sourcePoint" />
            <mxPoint x="-242.05" y="202.64" as="targetPoint" />
          </mxGeometry>
        </mxCell>
        <mxCell id="CzmuyPAignQkNYChFBfo-46" value="" style="endArrow=none;html=1;rounded=0;exitX=1;exitY=0.5;exitDx=0;exitDy=0;exitPerimeter=0;entryX=0.5;entryY=0;entryDx=0;entryDy=0;" edge="1" parent="1" source="CzmuyPAignQkNYChFBfo-44" target="CzmuyPAignQkNYChFBfo-47">
          <mxGeometry relative="1" as="geometry">
            <mxPoint x="-427" y="157" as="sourcePoint" />
            <mxPoint x="-300" y="140" as="targetPoint" />
          </mxGeometry>
        </mxCell>
        <mxCell id="CzmuyPAignQkNYChFBfo-47" value="GESTOR_SEGURO" style="whiteSpace=wrap;html=1;align=center;" vertex="1" parent="1">
          <mxGeometry x="-380" y="135" width="150" height="30" as="geometry" />
        </mxCell>
        <mxCell id="CzmuyPAignQkNYChFBfo-50" value="VENDEDOR" style="whiteSpace=wrap;html=1;align=center;" vertex="1" parent="1">
          <mxGeometry x="-580" y="70" width="150" height="30" as="geometry" />
        </mxCell>
        <mxCell id="CzmuyPAignQkNYChFBfo-51" value="" style="shape=requiredInterface;html=1;verticalLabelPosition=bottom;sketch=0;rotation=-205;" vertex="1" parent="1">
          <mxGeometry x="-380" y="44.999999999999986" width="20" height="40" as="geometry" />
        </mxCell>
        <mxCell id="CzmuyPAignQkNYChFBfo-52" value="" style="endArrow=none;html=1;rounded=0;exitX=0;exitY=0.5;exitDx=0;exitDy=0;exitPerimeter=0;entryX=1;entryY=0.5;entryDx=0;entryDy=0;entryPerimeter=0;" edge="1" parent="1" target="CzmuyPAignQkNYChFBfo-51" source="CzmuyPAignQkNYChFBfo-27">
          <mxGeometry relative="1" as="geometry">
            <mxPoint x="-395" y="5" as="sourcePoint" />
            <mxPoint x="-337.05" y="147.64" as="targetPoint" />
          </mxGeometry>
        </mxCell>
        <mxCell id="CzmuyPAignQkNYChFBfo-53" value="" style="endArrow=none;html=1;rounded=0;entryX=1;entryY=0.5;entryDx=0;entryDy=0;exitX=1;exitY=0.5;exitDx=0;exitDy=0;exitPerimeter=0;" edge="1" parent="1" source="CzmuyPAignQkNYChFBfo-51" target="CzmuyPAignQkNYChFBfo-50">
          <mxGeometry relative="1" as="geometry">
            <mxPoint x="-380" y="70" as="sourcePoint" />
            <mxPoint x="-400" y="80" as="targetPoint" />
          </mxGeometry>
        </mxCell>
        <mxCell id="CzmuyPAignQkNYChFBfo-54" value="" style="endArrow=none;html=1;rounded=0;exitX=0.25;exitY=0;exitDx=0;exitDy=0;entryX=0.5;entryY=1;entryDx=0;entryDy=0;" edge="1" parent="1" target="CzmuyPAignQkNYChFBfo-55" source="CzmuyPAignQkNYChFBfo-6">
          <mxGeometry width="50" height="50" relative="1" as="geometry">
            <mxPoint x="-340" y="-90" as="sourcePoint" />
            <mxPoint x="-330" y="330" as="targetPoint" />
          </mxGeometry>
        </mxCell>
        <mxCell id="CzmuyPAignQkNYChFBfo-55" value="&lt;u&gt;ID_FUNCIONARIO&lt;/u&gt;" style="ellipse;whiteSpace=wrap;html=1;" vertex="1" parent="1">
          <mxGeometry x="-395" y="-130" width="125" height="30" as="geometry" />
        </mxCell>
        <mxCell id="CzmuyPAignQkNYChFBfo-56" value="" style="endArrow=none;html=1;rounded=0;exitX=0;exitY=0;exitDx=0;exitDy=0;entryX=0.5;entryY=1;entryDx=0;entryDy=0;" edge="1" parent="1" target="CzmuyPAignQkNYChFBfo-57" source="CzmuyPAignQkNYChFBfo-6">
          <mxGeometry width="50" height="50" relative="1" as="geometry">
            <mxPoint x="-462" y="-35" as="sourcePoint" />
            <mxPoint x="-465" y="350" as="targetPoint" />
          </mxGeometry>
        </mxCell>
        <mxCell id="CzmuyPAignQkNYChFBfo-57" value="SALARIO" style="ellipse;whiteSpace=wrap;html=1;" vertex="1" parent="1">
          <mxGeometry x="-455" y="-100" width="70" height="30" as="geometry" />
        </mxCell>
        <mxCell id="CzmuyPAignQkNYChFBfo-59" value="" style="endArrow=none;html=1;rounded=0;exitX=0;exitY=0.5;exitDx=0;exitDy=0;entryX=0.5;entryY=1;entryDx=0;entryDy=0;" edge="1" parent="1" target="CzmuyPAignQkNYChFBfo-60" source="CzmuyPAignQkNYChFBfo-6">
          <mxGeometry width="50" height="50" relative="1" as="geometry">
            <mxPoint x="-430" y="-35" as="sourcePoint" />
            <mxPoint x="-535" y="370" as="targetPoint" />
          </mxGeometry>
        </mxCell>
        <mxCell id="CzmuyPAignQkNYChFBfo-60" value="DATA_INICIO" style="ellipse;whiteSpace=wrap;html=1;" vertex="1" parent="1">
          <mxGeometry x="-540" y="-80" width="85" height="30" as="geometry" />
        </mxCell>
      </root>
    </mxGraphModel>
  </diagram>
</mxfile>
